<?xml version="1.0" encoding="UTF-8"?>
<!DOCTYPE svg PUBLIC "-//W3C//DTD SVG 1.1//EN" "http://www.w3.org/Graphics/SVG/1.1/DTD/svg11.dtd">
<!-- Creator: CorelDRAW 2021.5 -->
<svg xmlns="http://www.w3.org/2000/svg" xml:space="preserve" width="103.124mm" height="20.6586mm" version="1.1" style="shape-rendering:geometricPrecision; text-rendering:geometricPrecision; image-rendering:optimizeQuality; fill-rule:evenodd; clip-rule:evenodd"
viewBox="0 0 10312.38 2065.86"
 xmlns:xlink="http://www.w3.org/1999/xlink"
 xmlns:xodm="http://www.corel.com/coreldraw/odm/2003">
 <defs>
  <style type="text/css">
   <![CDATA[
    .fil0 {fill:#007BFB;fill-rule:nonzero}
    .fil1 {fill:#11477E;fill-rule:nonzero}
   ]]>
  </style>
 </defs>
 <g id="Слой_x0020_1">
  <metadata id="CorelCorpID_0Corel-Layer"/>
  <g id="_2202656816832">
   <path class="fil0" d="M572.41 1605.21l0 -855.13 -335.28 0 0 -262.47 961.81 0 0 262.47 -335.27 0 0 855.13 -291.26 0zm1315.72 0l-40.64 -93.13 -401.32 0 -40.64 93.13 -313.26 0 508 -1137.92 93.13 0 508 1137.92 -313.27 0zm-143.93 -326.81l-96.52 -259.08 -98.21 259.08 194.73 0zm572.34 326.81l0 -1117.6 291.25 0 0 1117.6 -291.25 0zm1503.67 0l-325.11 0 -252.31 -347.13 -120.23 0 0 347.13 -291.25 0 0 -1117.6 438.57 0c125.31,0 228.6,35.28 309.88,105.84 81.28,70.55 121.92,163.4 121.92,278.55 0,139.98 -58.7,246.1 -176.1,318.34l294.63 414.87zm-697.65 -863.6l0 262.47 149.02 0c40.64,0 73.09,-12.14 97.36,-36.41 24.27,-24.27 36.41,-56.16 36.41,-95.67 0,-39.51 -12.14,-71.12 -36.41,-94.83 -24.27,-23.71 -56.72,-35.56 -97.36,-35.56l-149.02 0z"/>
   <path class="fil1" d="M3877.79 1046.41c-2.26,-160.3 56.44,-297.46 176.1,-411.48 119.66,-114.02 263.6,-169.9 431.8,-167.64 208.85,0 369.15,82.98 480.91,248.92l-203.2 172.72c-73.38,-102.73 -167.64,-154.09 -282.79,-154.09 -93.7,0 -167.92,28.22 -222.67,84.66 -54.75,56.45 -82.13,132.08 -82.13,226.91 0,95.96 29.07,173.29 87.21,231.99 58.14,58.7 136.31,88.05 234.53,88.05 106.11,0 187.95,-33.3 245.53,-99.91l0 -52.49 -260.77 0 0 -250.61 552.02 0 0 352.21c-51.93,92.57 -126.43,167.64 -223.52,225.21 -97.08,56.45 -205.46,84.67 -325.12,84.67 -168.2,2.26 -312.14,-53.34 -431.8,-166.79 -119.66,-113.46 -178.36,-250.9 -176.1,-412.33zm2311.39 558.8l-325.11 0 -252.31 -347.13 -120.23 0 0 347.13 -291.25 0 0 -1117.6 438.57 0c125.31,0 228.6,35.28 309.88,105.84 81.28,70.55 121.92,163.4 121.92,278.55 0,139.98 -58.7,246.1 -176.1,318.34l294.63 414.87zm-697.65 -863.6l0 262.47 149.02 0c40.64,0 73.09,-12.14 97.36,-36.41 24.27,-24.27 36.41,-56.16 36.41,-95.67 0,-39.51 -12.14,-71.12 -36.41,-94.83 -24.27,-23.71 -56.72,-35.56 -97.36,-35.56l-149.02 0zm1500.29 863.6l-40.64 -93.13 -401.32 0 -40.64 93.13 -313.26 0 508 -1137.92 93.13 0 508 1137.92 -313.27 0zm-143.93 -326.81l-96.52 -259.08 -98.21 259.08 194.73 0zm1271.69 -790.79l291.25 0 0 1137.92 -93.14 0 -606.21 -587.59 0 567.27 -291.25 0 0 -1137.92 93.13 0 606.22 579.12 0 -558.8zm514.77 1117.6l0 -1117.6 291.25 0 0 1117.6 -291.25 0zm755.22 0l0 -855.13 -335.28 0 0 -262.47 961.81 0 0 262.47 -335.27 0 0 855.13 -291.26 0z"/>
  </g>
 </g>
</svg>
