<?xml version="1.0" encoding="UTF-8"?>
<!DOCTYPE svg PUBLIC "-//W3C//DTD SVG 1.1//EN" "http://www.w3.org/Graphics/SVG/1.1/DTD/svg11.dtd">
<!-- Creator: CorelDRAW 2021.5 -->
<svg xmlns="http://www.w3.org/2000/svg" xml:space="preserve" width="86.6986mm" height="86.6986mm" version="1.1" style="shape-rendering:geometricPrecision; text-rendering:geometricPrecision; image-rendering:optimizeQuality; fill-rule:evenodd; clip-rule:evenodd"
viewBox="0 0 8669.86 8669.86"
 xmlns:xlink="http://www.w3.org/1999/xlink"
 xmlns:xodm="http://www.corel.com/coreldraw/odm/2003">
 <defs>
  <style type="text/css">
   <![CDATA[
    .fil23 {fill:#0B080C}
    .fil25 {fill:#150C18}
    .fil10 {fill:#161114}
    .fil21 {fill:#1D191C}
    .fil9 {fill:#1E191A}
    .fil2 {fill:#221A1D}
    .fil5 {fill:#251E1F}
    .fil24 {fill:#322523}
    .fil28 {fill:#342223}
    .fil0 {fill:#342C29}
    .fil15 {fill:#372E2A}
    .fil17 {fill:#3A312C}
    .fil22 {fill:#52443A}
    .fil37 {fill:#574944}
    .fil34 {fill:#594739}
    .fil32 {fill:#5C5249}
    .fil29 {fill:#675649}
    .fil30 {fill:#776758}
    .fil31 {fill:#7A7269}
    .fil33 {fill:#88745A}
    .fil38 {fill:#8B8378}
    .fil35 {fill:#958973}
    .fil20 {fill:#A89986}
    .fil36 {fill:#AA9D8E}
    .fil18 {fill:#AFA38B}
    .fil19 {fill:#B6AA97}
    .fil26 {fill:#C7B699}
    .fil6 {fill:#D3B47E}
    .fil3 {fill:#D5C8AD}
    .fil11 {fill:#E9D4A9}
    .fil1 {fill:#EADEC2}
    .fil27 {fill:#EBE2C9}
    .fil13 {fill:#F3DCB7}
    .fil8 {fill:#F5DAA9}
    .fil16 {fill:#FBE6B6}
    .fil14 {fill:#FBEDCB}
    .fil12 {fill:#FDEDC3}
    .fil4 {fill:#FEECBC}
    .fil7 {fill:#FFE59A}
   ]]>
  </style>
   <clipPath id="id0">
    <rect x="990.6" y="381" width="6400.78" height="7653.86"/>
   </clipPath>
 </defs>
 <g id="Слой_x0020_1">
  <metadata id="CorelCorpID_0Corel-Layer"/>
  <g style="clip-path:url(#id0)">
   <image id="NutsHyperX.png" x="990.6" y="381" width="6400.78" height="7653.86" xlink:href="logologo_Images\logologo_ImgID1.png"/>
  </g>
  <g id="_2031852284704">
   <path class="fil0" d="M1784.84 7442.19c52.15,-37.87 1018.33,-17.06 1161.55,-17.1 395.15,-0.1 790.33,-1.66 1185.33,-1.85 231.3,-0.11 2328.17,-6.97 2366.64,6.52l2.3 6.67c2.3,24.07 -3120.47,17.72 -3537.33,13.91 -197.1,-1.81 -395.47,0.59 -592.67,1.59 -88.65,0.44 -540.12,18.02 -585.82,-9.74zm-794.24 497.13l0 -93.03c12.19,-125.53 236.45,-89.71 269.48,-92.28 6.42,-82.71 -16.35,-103.88 18.34,-117.08l-0.38 120.61c10.63,-37.32 -12.35,-86.83 41.13,-156.5 49.75,-64.83 22.56,-74.21 135.46,-159.83 47.86,-36.3 53.48,-45.24 121.55,-46.05 14.08,-26.85 -3.29,-4.12 39.48,-18.21 41.79,-13.76 -21.19,27.41 22.04,-12.27 -66.59,-13.03 -64.07,8.36 -122.17,9.74 16.16,-24.45 -0.28,-7.4 25.7,-16.43 0.34,-0.12 28.62,-4.62 29.65,-4.77 65.14,-9.4 108.22,-0.68 171.8,-5.61 25.1,-69.87 24.96,-93.92 103.86,-107.81 64.99,-11.44 124.89,-10.14 171.43,-14.84 12.74,-38.17 24.51,-334.16 7.48,-376.99 -37.56,-8.38 -41.97,38.48 -105.44,3.65 -30.89,-16.94 -52.94,-46.49 -65,-79.11 -34,-91.97 -26.64,-293.9 -26.28,-405.51 0.16,-51.66 -7.77,-91.53 -8.78,-135.89 -3.21,-140.1 41.03,-137.57 56.44,-164.23 10.65,-18.42 5.84,-24.3 18.54,-41.59 47.94,9.09 95.6,41.71 147.38,5.31 37.92,-103.19 6.62,-840.48 6.62,-1009.87 0,-238.55 19.77,-689.66 0.4,-889.73 -4.53,-46.87 6.86,-73.58 8.41,-117.44 11.82,-335.01 -0.34,-695.37 -0.34,-1033.3l0 -770.46c0,-60.69 -17.56,-202.37 16.89,-245.53 0,668.18 5.48,1338.85 -2.59,2006.59 -2,165.48 8.49,336.2 1.03,499.54 -7.82,171.25 -1.75,330.45 -4.48,499.53 -2.77,171.96 -4.46,326.95 1.97,499.53l3.97 506.36c6.53,-12.95 11.84,-80.98 16.7,-115.01 4.51,-31.54 20.25,-79.96 27.65,-114.08l10.82 -1107c1.22,-279.61 -24.5,-553.9 -16.61,-838.6 5.01,-180.73 20.18,-349.7 18.34,-533 -1.87,-187.2 -7.85,-371.57 -7.74,-558.78l10.52 -538.01c43.23,-321.86 36.84,-137.41 88.46,-343.1 7.29,-29.07 27.13,-69.58 57.68,-71.38 -14.14,79.71 -31.12,129.54 -37.64,215.75 -6.18,81.6 -2.09,171.53 -2.06,254.12l-1.21 2514.6c-0.42,329.91 -6.73,661.87 13.88,990.64 0.82,35.27 1.99,63.33 17.46,93.39 17.11,-24.08 13.97,-51.46 11.87,-84.14 -9.7,-287.38 0.3,-584.03 -1.69,-872.89 -2.03,-293.48 -1.86,-587.06 -0.33,-880.53 3.06,-583.77 -11.38,-1169.22 -1.48,-1752.63 4.29,-253.07 -11.67,-496.14 168.41,-702.31 117.22,-134.2 372.8,-261.53 533.28,-347.37 190.04,-101.66 378.18,-209.32 566.87,-313.7 205.08,-113.45 429.36,-217.24 668.9,-213.18 354.25,6 904,354.91 1227.4,526.79 162.04,86.12 397.02,218.77 515.45,356.9 185.82,216.73 174.63,432.68 178.99,701.7 9.42,582.82 -3.94,1168.32 1.39,1752.26 2.67,293.11 1.22,587.32 1.21,880.54 0,117.05 -19.11,802.92 16.89,849.47 32.97,-164.26 15.46,-3344.14 15.02,-3491.03 19.49,13.95 18.07,-4.05 17.21,67.68 -0.31,25.9 -0.85,50.67 -0.35,76.7l5.55 -201.21c51.21,22.63 32.5,93.43 104.84,100.39l28.73 -74.61 5.45 38.34c16.58,-108.7 -0.96,-248.69 -0.96,-362.93 33.85,38.61 11.85,71.41 18.23,125.67 12.29,104.53 6.73,288.43 6.74,399.65 0.01,45.94 9.44,78.92 9.11,126.35 -1.14,166.24 7.55,293.76 -7.9,459.2l8.05 175.66c0.44,87.42 -8.89,172.21 -8.87,262.86l6.55 261.78c-1.05,26.87 -7.75,26.43 -4.45,57.38 3.31,31.19 8.9,22.98 4.48,59.06 -17.77,144.86 4.7,476.42 2.34,655.17 -0.6,44.85 -9.48,77.62 -9.04,126.43 2.31,258.47 -16.4,1414.26 21.78,1443.07 77.97,23.12 189.49,-56.74 206.14,90.32 10.28,90.86 0.68,213.11 -7.18,304.49 -7.92,92.19 11.2,225.1 -2.27,310.99 -16.31,104.07 -110.9,105.03 -192.95,120.31l0 372.54c69.91,16.59 133.2,-1.53 194.31,8.88 74.06,12.62 52.24,89.8 57.39,120.42 63.99,10.76 205.82,-38.74 363.07,77.19 88.22,65.03 117.86,220.14 122.75,325.99 78.23,3.57 227.09,-4.23 251.14,45.18 5.24,51.93 13.59,127.84 -4.59,177.81 -67.19,27.45 -657.17,-8.38 -795.23,9.1 -118.05,14.94 -277.73,5.89 -400.51,5.89l-4800.58 -8.46c-285.92,0 -365.92,20.96 -381,-53.21zm1381.42 -728.38c18.6,-35.06 148.67,-18.1 193.26,-18.58 553.45,-5.92 3357.78,-19.87 3404.31,-0.51 -17.15,34.6 -48.61,20.68 -93.73,20.5 -36.77,-0.14 -73.33,1.05 -110.07,1.84l-685.8 -1.38c-375.43,-2.46 -2663.76,24.78 -2707.97,-1.87zm3173.52 -1104.4l115.58 -0.18 1.78 834.28 -116.76 2.44 -0.6 -836.54zm-2421.3 0.2l115.28 -0.25 1.86 834.15 -116.62 2.36 -0.52 -836.26zm1604.77 832.22l-113.32 4.02 110.53 -834.86 154.19 -1.69 108.93 834.06 -117.1 1.32 -21.64 -185.01 -99.17 -1.45 -22.42 183.61zm-1955.7 0.05l-113.36 3.92 110.64 -834.74 153.87 -1.56 108.97 833.83 -116.88 1.27 -21.63 -185.03 -99.45 -1.59 -22.16 183.9zm2415.13 1.28l-117.18 2.86 0.23 -836.17 100.08 -0.9 148.58 468.64 5.5 -467.64 114.97 -0.67 2.1 833.83 -118.05 2.45 -130.76 -412.26 -5.47 409.86zm-987.08 -832.78c75.38,-6.34 225.49,-11.75 278.44,46.76 51.07,56.42 55.7,193.48 45.7,268.52 -8.56,64.24 -37.65,77.97 -49.57,117.94 -7.75,25.97 67.53,356.97 75.66,402.46l-128.85 -3.48c-12.97,-63.62 -24.73,-128.2 -36.5,-192.21 -28.68,-156.04 -12.95,-164.1 -69.13,-156.87l-1.54 351.64 -116.43 0.64 2.22 -835.4zm-513.35 835.35l-128.96 -0.76 -53.63 -287.15c-9.65,-54.04 3.01,-71.5 -48.55,-64.32l-4.06 349.72 -117.1 2.77 0.13 -836.11c258.68,-15.4 363.79,33.58 326.04,316.22 -8.12,60.8 -29,67.48 -47.41,112.14 -12.59,30.53 64.98,358.9 73.54,407.49zm2052.85 -835.88l337.43 -1.03 4.03 111.38 -110.9 0.14 -3.93 722.81 -117.3 2.96 -0.17 -725.1 -109.79 -0.74 0.63 -110.42zm-3437.26 0.07l337.14 -0.96 4.12 111.24 -110.96 0.07 -4.14 722.74 -116.78 2.82 -0.16 -724.93 -109.9 -0.72 0.68 -110.26zm1674.08 514.35l-49.46 -4.47 0.09 -100.52 167.04 0.69 1.1 424.83 -58.53 4.58 -23.17 -50.7c-47.65,43.26 -79.37,78.82 -152.43,54.01 -55.87,-18.98 -84.09,-69.31 -92.9,-126.72 -17.11,-111.47 -4.66,-325.62 -4.65,-447.71 0.01,-128.87 -7.22,-282.06 163.74,-282.67 167.25,-0.6 177.34,151.94 168.04,283.39l-115.92 2.04c-2.54,-37.49 3.2,-111.38 -8.18,-140.19 -16.8,-42.54 -72.77,-45.51 -84.88,3.25 -12.22,49.2 -4.64,240.37 -4.62,303.52 0.01,46.74 -10.51,266.84 19.13,289.93 97.33,75.79 78.27,-176.19 75.6,-213.26zm1854.01 -788.1c-29.62,13.67 -382.59,5.74 -446.9,5.62 -89.59,-0.16 -359.29,19.78 -414.32,-29.85 81.19,-14.02 525.88,-0.17 668.32,0.9 48.97,0.36 166.6,-17.64 192.9,23.33zm-2504.95 -2074.27c35.71,-32.22 54.28,-54.3 101.67,-54.71 38.72,-0.34 100.23,-2.01 127.2,20.53 -43.28,56.45 -170.95,72.3 -228.87,34.18zm2116.52 -25.26c-37.09,14.04 -164.41,21.24 -221.47,-50.1 24.47,-38.31 79.38,-7.33 111.22,8.81 34.96,17.73 77.47,24.44 110.25,41.29zm-1831.2 -72.36c-31.29,-4.73 -37.23,-13.8 -43.95,-44.68 21.67,1.52 36.97,22.2 43.95,44.68zm-440.48 -44.41c44.29,-34.22 123.44,-47.17 179.04,-32.88 9.4,39.98 1.41,12.29 -1.23,40.52 -1.03,11 -0.38,15.75 -0.95,28.49 -54.56,15.77 -141.14,13.05 -176.86,-36.13zm348.85 62.28c-45.05,-1.65 -101.89,-43.09 -121.63,-78.35 42.95,1.67 110.03,39.65 121.63,78.35zm1804.41 -38.13c14.27,-29.26 128.51,-95.65 162.6,-114.14l53.76 37.68c-17.84,19.49 -74.26,56.57 -99.92,73.4 -53.84,35.3 -56.32,31.15 -116.44,3.06zm-1805.2 -205.79c79.71,-20.5 222.94,154.12 220.69,229.36 -86.75,22.98 -101.52,-23.27 -148.28,-85.51 -26.81,-35.68 -74.94,-98.62 -72.41,-143.85zm1724.88 -259.94l-44.7 31.97c-13.86,-72.21 0.96,-81.16 42.83,-132.29 28.37,-34.65 55.31,-68.85 96.06,-86.4 9.47,-22.17 7.85,-17.57 28.53,-23.35 19.7,87.21 -54.89,175.88 -122.72,210.07zm-2229.49 -281.5c-19.55,-90.46 180.66,-141.22 249.89,-113.34 -0.12,42.26 -71.24,57.15 -106.08,73.31 -47.23,21.92 -91.24,48.82 -143.81,40.03zm205.52 -206.38c-91.98,28.98 -180.38,-57.39 -203.23,-134.97 114.68,-17.75 179.45,23.58 203.23,134.97zm-349.58 -181.73c21.46,-21.45 70.04,-49.33 100.09,-48.74l3.04 34.34 -103.13 14.4zm430.57 -66.41c19.08,25.44 38.11,57.62 39.97,90.21 -61.18,17.32 -148.34,-20.11 -157.8,-84.4l117.83 -5.81zm1456.77 -271.48c17.61,-136 164.83,-225.18 295.41,-227.25 -12.28,27.06 -98.87,106 -127.34,132.49 -8.13,7.56 -160.72,92.79 -168.07,94.76zm10.25 -155.98c-10.78,-23.17 -31.41,-147.61 -21.23,-169.16 10.25,-21.71 120.19,-61.48 138.69,-66.11 -2.64,60.17 -57.32,222.26 -117.46,235.27zm-1046.02 188.58l30.69 48.2c39.44,-13.23 77.4,-107.15 114.33,-122.51 14.38,58.87 -41.38,126.32 7.69,263.72 12.48,34.94 36.23,71.89 44.99,106.13 23.88,93.31 -19.36,131.98 131.19,310.56 52.91,62.76 104.37,83.11 127.59,164.5 68.53,-267.93 -42.57,-266.23 102.04,-442.76 35.68,-43.56 95.99,-96.96 142.86,-127.84 43.57,-28.7 138.38,-72.3 166.59,-97.58 6.1,-78.99 -26,-328.62 73.62,-361.17 60.32,43.25 20.87,180.6 8,241.81 -6.07,28.84 -14.64,104.64 -25.72,125.69 -28.28,53.75 -75.43,2.43 -85.08,70.6 100.34,13.89 92.48,-28.29 182.34,-49.22 49.53,-11.53 155.08,-32.38 172.47,30.98 -16.76,22.25 -356.41,150.21 -434.79,206.16 -120.47,86 -220.46,337.85 -83.12,437.34l4.35 -18.7c85.86,78.89 -4.01,265.42 -25.1,356.98 -5.21,22.65 -10.6,47.41 -14.17,70.41 -10.4,67 -28.69,77.34 -25.72,151.66 -23.5,14.13 -6.74,5.16 -20.42,87.54 -5.21,31.37 -0.57,23.7 -12.44,49.8 -14.85,32.67 -7.76,-6.75 -13.47,39.7 -19.18,155.93 1.72,129.87 -36.87,204.36 42.12,-17.24 148.33,-123.14 191.19,-161.57 76.06,-68.2 105.93,-86.61 157.19,-182.04 94.03,-175.07 192.09,-295.54 417.91,-234.51l-16.56 -17.71c29.05,-5.01 18.59,6.06 15.19,-38.67l19.03 6.51c-3.02,-51.58 37.77,-347.57 59.1,-380.36 43.69,1.75 34.51,17.74 40.55,126.2 3.15,56.53 4.61,112.97 1.36,169.49l18.38 -44.27c29.39,26.86 32.01,11.71 38.93,131.29 32.72,-16.05 25.58,-19.72 35.87,9.82 56.7,-12.63 63.26,-37.08 128.99,-28.38l4.12 24.52c33.93,19.23 27.64,145.76 -120.46,147.48l-5.43 -24.11c-59.83,21.77 -70.08,22.98 -134.2,27.25 -45.85,3.05 -120.69,-9.38 -154.45,12.77 41.87,10.79 93.77,8.92 137.4,4.08 54.74,-6.08 70.5,-21.22 103.82,21.14 -53.54,1.51 -67.17,-1.78 -118.35,11.21 -35.66,9.05 -113.24,-7.05 -188.23,15.01 -29.19,8.59 -59.92,18 -64.58,47.21 39.86,19.11 64.62,9.94 109.33,18.33 -27.46,20.91 -12.94,3.63 -40.1,20.38 -1.95,18.41 -10.8,52.16 -3.47,61.94l-28.58 7.41c35.49,25.06 106.77,12.13 153.29,13.86 -60.37,108.5 -351.75,84.42 -403.49,143.47 -142.39,162.51 -205.89,172.05 -207.73,336.35 -2.41,215.75 -11.7,168.87 -57.76,313.24 47.59,-11.83 23.63,-4.32 57.9,45.57 38.54,56.14 -12.59,41.36 15.55,120.54 8.54,24.04 14.54,27.18 23.91,52.36l63.24 194.05c0,56.56 -40.02,144.59 -18.37,193.38 14.39,32.44 16.8,34.29 -1.22,76.21 -23.06,53.64 21.83,45.55 -7.95,77.57l178.61 107.42c11.98,-26.56 -2.75,-15.41 33.96,-32.94 99.68,-47.57 187.23,10.39 266.94,69.3l-37.17 -0.1c60.87,45.1 181.13,14.62 255.59,11.92 77.54,-2.8 164.46,12.24 240.52,28.19 108.14,22.67 100.47,28.75 178.95,92.78 41.94,34.22 109.16,97.27 130.49,149.08 20.84,12.87 25.37,21.91 27.87,47.23l11.36 4.53 -13.94 3.59 18.83 47.09c-35.99,19.43 -329.08,-0.75 -399.87,-0.75 -131.89,0 -279.33,6.13 -409.29,-1.45 -1.37,2.29 -2.28,5.58 -3.26,7.3l-11.04 18.18c-1.52,1.53 -3.22,3.07 -4.9,4.38 -4.92,3.85 -24.24,10.18 -30.48,12.48 -1.44,-2.43 -11.22,-17.33 -11.54,-17.78l-10 -11.68 -0.95 30.85c-153.41,18.02 -2316.04,8.91 -2337.12,-0.45 37.08,-31.65 32.57,7.72 73.79,-19.91l-33.75 -2.83 10.55 -18.65c17.4,-48.84 9.31,-29.23 53.46,-72.7l0.8 10.67c74.74,-36.76 100.98,-167.85 250.68,-216.07 113.66,-36.61 268.09,-21.69 374.12,-84.59 98.12,-58.21 177.66,-128.38 298.74,-157.87 103.26,-25.14 105.8,35.36 181.58,38.85 27.75,1.27 182.32,-20.23 207.01,-28.39 14.91,-169.31 124.16,-334.14 127.94,-413.02 8.05,-168.07 0.46,-358.79 -20.28,-525.01 -30.49,-244.36 -54.98,-421.52 -303.18,-511.48 -56.23,-20.38 -121.98,-81.46 -76.48,-146.57 35.33,-10.37 56.68,3.62 98.77,5.03 -22.67,-17.71 26.59,-13.42 -37.46,-16.98 140.77,-31.53 35.48,-19.35 191.99,-149.84 74.69,-62.27 50.05,-49.4 48.23,-162.69 -0.46,-28.23 5.86,-66.86 5.78,-101.47 -0.1,-39.05 2.12,-64.74 1.63,-94.29 -0.94,-55.59 3.55,-24.62 -10.91,-79.81 -94.19,1.78 -68.96,-29.68 -72.39,-53.87 -2.6,-18.27 -50.85,-80.13 -67.45,-102.43l-71.6 -81.09c-29.35,-25.98 -39.18,-9.72 -10.97,-26.22 -34.88,-28.87 -85.85,-26.02 -134.92,-32.89l10.42 -93.61c-84.9,-39.31 -214.19,58.27 -302.01,42.64 -22.36,-17.97 -97.78,-142.88 -106.9,-171.53 37.36,-4.94 81.42,22.11 123.63,22.17 34.73,4.29 24.45,5.04 50.87,22.5 20.99,-23.88 -8.1,-9.56 25.67,-3.85 25.1,4.24 -19.82,7.42 25.47,4.75 12.48,-0.74 42.89,-15.06 55.8,-20.17 76.88,-30.41 64.74,-10.99 88.7,-53.13l88.27 4.71c8.3,-33.43 -14.22,-29.9 -28.75,-62.55 1.69,-48.01 3.57,-18.8 11.57,-39.52 23.27,-60.25 -0.1,-44.8 68.46,-85.69l-17.97 -39.14c-32.04,-5.24 -31.54,4.91 -61.87,12.71l-66.3 -64.53c-48.87,-6.25 -104.48,-98.51 -128.25,-138.6 42.71,-3.95 91.56,39.76 127.71,64.21 55.53,22.43 107.99,73.44 143.54,86.55l-29.15 -52.34c-37.43,-44.87 -44.25,-268.35 -64.96,-343.8 -34.34,-125.12 -181.4,-88.75 -143.69,-264.22 41.39,22.87 71.75,117.55 151.03,118.15 39.01,-110.39 -32.06,-92.25 -63.2,-179.34 -20.95,-58.58 -40.12,-165.35 -3.17,-217.07 39.52,16.22 61.38,64.12 81.78,103.84 30.61,59.59 30.58,85.28 -8.4,139.95 17.62,78.94 33.33,46.81 19.47,146.07 -22.61,161.79 44.68,365.93 39.82,472.41z"/>
   <path class="fil1" d="M4280.1 5193.7c-120.29,36.15 -57.77,-115.83 9.38,-51.4 27.86,26.74 -2.4,40.05 -9.38,51.4zm-68.87 -284.2c-12.45,-18.34 -7.99,-53.14 5.13,-73.72 33.8,6.12 12.61,-4.58 26.53,19.77 9.03,29.62 4.76,43.37 -9.28,67.63 -34.86,-5.97 -14.45,-3.65 -22.38,-13.68zm17.55 -595.89l-9.11 -81.57 49.24 -0.38c-5.82,32.99 -15.14,60.45 -40.13,81.95zm-506.24 -2113.09l-8.68 24.01 29.15 52.34c-35.55,-13.11 -88.01,-64.12 -143.54,-86.55l-9.63 42.85 30.95 27.01 -20.78 4.53 66.3 64.53c30.33,-7.8 29.83,-17.95 61.87,-12.71l17.97 39.14c6.14,33.24 8.95,66.4 15,99 9.41,50.76 23.5,40.25 38.2,79.58 33.48,89.55 52.53,126.53 25.23,163.51 -69.67,7.42 -116.74,-75.45 -176.39,-97.31 -64.16,-23.51 -150.84,27.25 -221.42,44.4 -29.38,-10.97 -49.83,-31.49 -66.68,-56.23 -42.21,-0.06 -86.27,-27.11 -123.63,-22.17 9.12,28.65 84.54,153.56 106.9,171.53 87.82,15.63 217.11,-81.95 302.01,-42.64l-10.42 93.61c49.07,6.87 100.04,4.02 134.92,32.89 127.24,0.31 353.96,291.56 364.12,313.63 -32.47,28.99 -72.49,40.83 -92.72,92.58 -47.01,120.25 13.01,340.07 12.19,483.92l-260.44 -21.44c-42.09,-1.41 -63.44,-15.4 -98.77,-5.03 -45.5,65.11 20.25,126.19 76.48,146.57 248.2,89.96 272.69,267.12 303.18,511.48 20.74,166.22 28.33,356.94 20.28,525.01 -3.78,78.88 -113.03,243.71 -127.94,413.02l0.69 22.51c36.71,-17.45 62.34,-5.35 97.17,-10.77 50.88,-7.91 13.27,-29.86 74.34,-16.3 32.45,7.2 86.43,-11.35 114.18,-23.97 26.81,-12.2 2.18,-5.04 41.41,-2.47 -4.7,-56.74 2.28,10.56 24.38,-56.56l7.99 27.13c42.75,49.13 -18.06,2.98 18.55,12.08 -0.6,-40.76 -7.01,-21.25 17.18,-46.11 14.1,-59.57 12.09,-129.21 30.57,-184.63 36.19,-108.53 -38.87,-213.38 -87.68,-341.58 -17.87,-46.96 -4.24,-130.79 37.62,-156.69 46.06,-144.37 55.35,-97.49 57.76,-313.24 1.84,-164.3 65.34,-173.84 207.73,-336.35 51.74,-59.05 343.12,-34.97 403.49,-143.47 -46.52,-1.73 -117.8,11.2 -153.29,-13.86l-5.4 5.84c-26.82,-3.21 -32.81,3.51 -41.69,-16.87 -117.95,-25.58 -28.54,-223.07 139.85,-195.68 33.76,-22.15 108.6,-9.72 154.45,-12.77 64.12,-4.27 74.37,-5.48 134.2,-27.25 77.61,-45.42 72.58,-66.55 125.89,-123.37l-4.12 -24.52c-65.73,-8.7 -72.29,15.75 -128.99,28.38 -53.66,27.76 -154.19,89.88 -211.85,37.7 -225.82,-61.03 -323.88,59.44 -417.91,234.51 -51.26,95.43 -81.13,113.84 -157.19,182.04 -42.86,38.43 -149.07,144.33 -191.19,161.57l-28.96 24.18c-11.59,-302.22 107.73,-291.55 -27.57,-549.65 -43.86,-83.67 155.63,-180.79 200.37,-416.28 -137.34,-99.49 -37.35,-351.34 83.12,-437.34 78.38,-55.95 418.03,-183.91 434.79,-206.16 -17.39,-63.36 -122.94,-42.51 -172.47,-30.98 -89.86,20.93 -82,63.11 -182.34,49.22 9.65,-68.17 56.8,-16.85 85.08,-70.6 11.08,-21.05 19.65,-96.85 25.72,-125.69 12.87,-61.21 52.32,-198.56 -8,-241.81 -99.62,32.55 -67.52,282.18 -73.62,361.17 -28.21,25.28 -123.02,68.88 -166.59,97.58 -46.87,30.88 -107.18,84.28 -142.86,127.84 -144.61,176.53 -33.51,174.83 -102.04,442.76 -23.22,-81.39 -74.68,-101.74 -127.59,-164.5 -150.55,-178.58 -107.31,-217.25 -131.19,-310.56 -8.76,-34.24 -32.51,-71.19 -44.99,-106.13 -49.07,-137.4 6.69,-204.85 -7.69,-263.72 -36.93,15.36 -74.89,109.28 -114.33,122.51l-30.69 -48.2z"/>
   <path class="fil2" d="M2074.29 1964.27c0,668.18 5.48,1338.85 -2.59,2006.59 -2,165.48 8.49,336.2 1.03,499.54 -7.82,171.25 -1.75,330.45 -4.48,499.53 -2.77,171.96 -4.46,326.95 1.97,499.53l3.97 506.36c6.53,-12.95 11.84,-80.98 16.7,-115.01 4.51,-31.54 20.25,-79.96 27.65,-114.08l10.82 -1107c1.22,-279.61 -24.5,-553.9 -16.61,-838.6 5.01,-180.73 20.18,-349.7 18.34,-533 -1.87,-187.2 -7.85,-371.57 -7.74,-558.78l10.52 -538.01c43.23,-321.86 36.84,-137.41 88.46,-343.1 7.29,-29.07 27.13,-69.58 57.68,-71.38 111.03,-240.54 148.41,-293.95 380.14,-434.37 174.76,-105.9 360.56,-192.53 534.55,-295.35 366.68,-216.7 799.09,-483.33 1239.25,-363.32 280.56,76.49 839.34,393.46 1109.71,548.8 164.82,94.69 360.46,199.02 471.73,358.22 159.03,227.51 151.01,396.73 157.23,664.4 19.49,13.95 18.07,-4.05 17.21,67.68 -0.31,25.9 -0.85,50.67 -0.35,76.7l5.55 -201.21c51.21,22.63 32.5,93.43 104.84,100.39l28.73 -74.61 5.45 38.34c16.58,-108.7 -0.96,-248.69 -0.96,-362.93 38.77,-162.7 -185.96,-482.58 -314.1,-583.41 -168.08,-132.24 -372.43,-246.46 -563.87,-342.05 -351,-175.27 -894.28,-547.82 -1289.5,-522.55 -411.1,26.28 -659.62,228.41 -973.53,381.38 -92.1,44.87 -205.79,109.98 -294.87,162.32 -244.53,143.65 -624.78,311.42 -751.5,611.63 -45.29,107.27 -99.39,261.93 -71.43,377.35z"/>
   <path class="fil3" d="M4167.35 5594.35c-8.6,22.01 1.91,9.51 -15.67,15.98 1.79,-22.78 -10.73,-14.23 15.67,-15.98zm-67.46 -0.03c-9.57,23.26 2.31,9.31 -18.26,17.54 4.99,-23.32 -8.44,-14.5 18.26,-17.54zm16.02 -22.81c1.62,-32.04 3.84,-33.6 32.03,-41.7 0.49,30.77 -3.54,32.9 -32.03,41.7zm-573.46 -169.78l9.16 -7.38c23.04,-7.95 -6.17,-4.62 13.38,5.75 -16.52,6.07 5.57,18.39 -22.54,1.63zm423.8 -120.15c-24.69,8.16 -179.26,29.66 -207.01,28.39 -75.78,-3.49 -78.32,-63.99 -181.58,-38.85 -121.08,29.49 -200.62,99.66 -298.74,157.87 -106.03,62.9 -260.46,47.98 -374.12,84.59 -149.7,48.22 -175.94,179.31 -250.68,216.07 26.52,20.65 -6.24,9.44 38.03,15.02l669.03 -5.5c-23.75,-42.46 -78.18,-109.89 -39.23,-173.35 29.42,77.27 -8.68,79.87 64.32,156.8l158.89 -14.47c6.13,-60.04 -49.63,-146.78 -44.04,-218.25 29.01,-20.4 56.48,-45.25 92.91,-40.43 -24.1,71.9 -34.08,-39.13 -16.93,197.57l55.61 32.2 -21.87 23.39c-17.35,14.8 -10.86,-4.98 -15.53,18.85 6.6,29.82 70.5,-1.46 86.41,-16.26 19.26,-17.91 32.88,-49.43 56.48,-62.17l-7.09 88.98 86.82 1.49c12.26,-49.6 2.44,-139.51 9,-179.13 3.09,-18.67 0.9,-13.73 8.54,-24.92 40.53,30.12 26.92,148.98 52.81,199.15 86.13,12.29 57.65,-44.44 118.06,-66.4l-8.05 67.26c82.65,19.07 52.98,-65.66 82.39,-104.41 15.98,32.14 -7.37,68.64 -9.58,106.7l91.97 -5.32c8.49,-30.46 1.96,-25.08 22.31,-46.25 1.24,-28.82 17.55,-56.02 39.45,-76.97l13.78 25.91c24.5,24.55 35.9,67.86 39.43,106.42 30.7,-40.35 68.24,-91.55 113.73,-112.83l50.88 -38.59c-1.48,30.89 -11.47,35.33 -41.4,47.82 -35.31,38.89 -72.12,31.48 -54.33,97.84 39.62,19.97 584.47,11.64 675.34,12.68l10.93 -40.04c5.32,2.15 8.1,2.31 8.71,5.22 0.56,2.72 4.11,3.24 4.8,4.08l8.67 18.98c94.72,9.78 47.47,-20.37 63.73,-74.92 28.99,-7.97 25.25,2.88 52.7,21.6 17.83,-25.15 9.86,-22.15 35.53,-47.03l46.54 -35.37c2.49,5.26 2.03,6.45 1.64,9.26 -2.55,18.33 -18.47,11.75 -25.92,53.35l-7.32 23.81c58.38,-4.9 70.51,-21.01 107.92,18.97l-28.06 7.61c-0.37,0.02 -13.34,-3.43 -28.36,-1.51l-38.28 10.34c-49.07,-7.84 -65.9,-47.18 -84.01,27.22l21.06 -6c61.44,-10.81 74.66,3.16 110.82,-0.53 46.61,-4.75 -8.07,-12.26 46.4,-3.33 0.66,0.11 5.65,16.88 28.88,-4.33 4.85,-4.43 9.09,-14.93 2.05,-23.99l-17.08 -11.56c-1.66,-1.02 -5,-2.05 -7.3,-3.44 61.81,-72.15 37.67,-39.14 69.22,-51.15 -2.15,-36.46 -5.17,-38.91 3.77,-74.78 23.18,26.11 16.04,66.17 24.12,97.94 27.33,-42.32 -2.71,-27.08 18.36,-50.71l6.99 53.6 23.5 -14.31c37.43,-10.24 7.48,-9.43 36.71,5.96l-33.45 16.79c-22.73,9.07 -5.83,-6.21 -26.07,13.99 -18.61,18.57 -13.38,28.26 -31.42,49.74 38.73,-13.88 15.66,-16.19 50.25,-5.25 7.87,-29.61 3.11,-23 24.15,-34.52 17.25,22.95 29.38,15.47 5.78,33.77 67.57,0.39 53.27,-38.67 132.57,-34.64 -0.81,-2.06 -2.6,-7.42 -2.97,-5.93 -0.47,1.9 2.81,5.97 -5.08,-9.89l-3.08 -6.27c-0.12,-0.25 -0.76,-1.45 -0.85,-2.24l35.11 -21.46 17.79 -8.17 3.58 14.58 12.69 31.83 -42.81 22.34c-28.43,11.28 -29.64,-2.34 -67.7,18.19l76.83 10.52 45.91 -17.96c11.74,-32.58 16.55,4.31 -2.42,-35.45 13.16,-12.32 -2.07,-5.8 15.81,2.16 -21.33,-51.81 -88.55,-114.86 -130.49,-149.08 -78.48,-64.03 -70.81,-70.11 -178.95,-92.78 -76.06,-15.95 -162.98,-30.99 -240.52,-28.19 -74.46,2.7 -194.72,33.18 -255.59,-11.92 -95.04,-0.27 -120.4,-109.87 -236.07,-19.64l-27.66 -16.62 -178.61 -107.42 -116.61 -48.9 3.04 -27.88c-24.19,24.86 -17.78,5.35 -17.18,46.11 -36.61,-9.1 24.2,37.05 -18.55,-12.08l-7.99 -27.13c-22.1,67.12 -29.08,-0.18 -24.38,56.56 -39.23,-2.57 -14.6,-9.73 -41.41,2.47 -27.75,12.62 -81.73,31.17 -114.18,23.97 -61.07,-13.56 -23.46,8.39 -74.34,16.3 -34.83,5.42 -60.46,-6.68 -97.17,10.77l-0.69 -22.51z"/>
   <path class="fil4" d="M2280.01 1756.86c-14.14,79.71 -31.12,129.54 -37.64,215.75 -6.18,81.6 -2.09,171.53 -2.06,254.12l-1.21 2514.6c-0.42,329.91 -6.73,661.87 13.88,990.64l29.33 9.25c-9.7,-287.38 0.3,-584.03 -1.69,-872.89 -2.03,-293.48 -1.86,-587.06 -0.33,-880.53 3.06,-583.77 -11.38,-1169.22 -1.48,-1752.63 4.29,-253.07 -11.67,-496.14 168.41,-702.31 117.22,-134.2 372.8,-261.53 533.28,-347.37 190.04,-101.66 378.18,-209.32 566.87,-313.7 205.08,-113.45 429.36,-217.24 668.9,-213.18 354.25,6 904,354.91 1227.4,526.79 162.04,86.12 397.02,218.77 515.45,356.9 185.82,216.73 174.63,432.68 178.99,701.7 9.42,582.82 -3.94,1168.32 1.39,1752.26 2.67,293.11 1.22,587.32 1.21,880.54 0,117.05 -19.11,802.92 16.89,849.47 32.97,-164.26 15.46,-3344.14 15.02,-3491.03 -6.22,-267.67 1.8,-436.89 -157.23,-664.4 -111.27,-159.2 -306.91,-263.53 -471.73,-358.22 -270.37,-155.34 -829.15,-472.31 -1109.71,-548.8 -440.16,-120.01 -872.57,146.62 -1239.25,363.32 -173.99,102.82 -359.79,189.45 -534.55,295.35 -231.73,140.42 -269.11,193.83 -380.14,434.37z"/>
   <path class="fil5" d="M2654.12 5729.65l-0.8 -10.67c-44.15,43.47 -36.06,23.86 -53.46,72.7l-10.55 18.65 33.75 2.83 2264.28 -10.49 10 11.68c0.32,0.45 10.1,15.35 11.54,17.78 6.24,-2.3 25.56,-8.63 30.48,-12.48 1.68,-1.31 3.38,-2.85 4.9,-4.38l11.04 -18.18c0.98,-1.72 1.89,-5.01 3.26,-7.3 129.96,7.58 277.4,1.45 409.29,1.45 70.79,0 363.88,20.18 399.87,0.75l-18.83 -47.09c-50.39,2.05 -295.53,7.12 -320.85,-6.96 -59.32,-0.46 -208.21,25.25 -255.5,0.11l-21.06 6 -129.22 -1.57c-90.87,-1.04 -635.72,7.29 -675.34,-12.68 -17.79,-66.36 19.02,-58.95 54.33,-97.84l-9.48 -9.23c-45.49,21.28 -83.03,72.48 -113.73,112.83l-114.97 -9.11 -91.97 5.32c2.21,-38.06 25.56,-74.56 9.58,-106.7 -29.41,38.75 0.26,123.48 -82.39,104.41l8.05 -67.26c-60.41,21.96 -31.93,78.69 -118.06,66.4 -25.89,-50.17 -12.28,-169.03 -52.81,-199.15 -7.64,11.19 -5.45,6.25 -8.54,24.92 -6.56,39.62 3.26,129.53 -9,179.13l-86.82 -1.49 7.09 -88.98c-23.6,12.74 -37.22,44.26 -56.48,62.17 -15.91,14.8 -79.81,46.08 -86.41,16.26 -22.76,-18.34 -16.59,-41.63 -18.21,-74.44 -17.15,-236.7 -7.17,-125.67 16.93,-197.57 -36.43,-4.82 -63.9,20.03 -92.91,40.43 -5.59,71.47 50.17,158.21 44.04,218.25l-158.89 14.47c-73,-76.93 -34.9,-79.53 -64.32,-156.8 -38.95,63.46 15.48,130.89 39.23,173.35l-669.03 5.5c-44.27,-5.58 -11.51,5.63 -38.03,-15.02z"/>
   <polygon class="fil6" points="5193.91,6530.43 5324.67,6942.69 5442.72,6940.24 5440.62,6106.41 5325.65,6107.08 5320.15,6574.72 5171.57,6106.08 5071.49,6106.98 5071.26,6943.15 5188.44,6940.29 "/>
   <path class="fil6" d="M3454.65 6219.8c98.63,-4.02 94.09,45.09 93.15,130.28 -0.87,77.73 -3.4,122.8 -94.98,118.2l1.83 -248.48zm233.36 723.06c-8.56,-48.59 -86.13,-376.96 -73.54,-407.49 18.41,-44.66 39.29,-51.34 47.41,-112.14 37.75,-282.64 -67.36,-331.62 -326.04,-316.22l-0.13 836.11 117.1 -2.77 4.06 -349.72c51.56,-7.18 38.9,10.28 48.55,64.32l53.63 287.15 128.96 0.76z"/>
   <path class="fil6" d="M4318.33 6468.21l-1.87 -247.87c96.09,-6.03 95.19,39.4 94.96,121.12 -0.23,79.57 0.99,131.61 -93.09,126.75zm-119.19 474.7l116.43 -0.64 1.54 -351.64c56.18,-7.23 40.45,0.83 69.13,156.87 11.77,64.01 23.53,128.59 36.5,192.21l128.85 3.48c-8.13,-45.49 -83.41,-376.49 -75.66,-402.46 11.92,-39.97 41.01,-53.7 49.57,-117.94 10,-75.04 5.37,-212.1 -45.7,-268.52 -52.95,-58.51 -203.06,-53.1 -278.44,-46.76l-2.22 835.4z"/>
   <path class="fil6" d="M3977.68 6621.4c2.67,37.07 21.73,289.05 -75.6,213.26 -29.64,-23.09 -19.12,-243.19 -19.13,-289.93 -0.02,-63.15 -7.6,-254.32 4.62,-303.52 12.11,-48.76 68.08,-45.79 84.88,-3.25 11.38,28.81 5.64,102.7 8.18,140.19l115.92 -2.04c9.3,-131.45 -0.79,-283.99 -168.04,-283.39 -170.96,0.61 -163.73,153.8 -163.74,282.67 -0.01,122.09 -12.46,336.24 4.65,447.71 8.81,57.41 37.03,107.74 92.9,126.72 73.06,24.81 104.78,-10.75 152.43,-54.01l23.17 50.7 58.53 -4.58 -1.1 -424.83 -167.04 -0.69 -0.09 100.52 49.46 4.47z"/>
   <path class="fil6" d="M4797.09 6294.4c11.49,66.39 45.82,287.84 36.09,349.4l-71.44 -2.15 35.35 -347.25zm-45.66 460.95l99.17 1.45 21.64 185.01 117.1 -1.32 -108.93 -834.06 -154.19 1.69 -110.53 834.86 113.32 -4.02 22.42 -183.61z"/>
   <path class="fil6" d="M2841.32 6294.41c11.42,67.44 45.92,286.8 36.06,349.4l-71.41 -2.17 35.35 -347.23zm-45.85 460.7l99.45 1.59 21.63 185.03 116.88 -1.27 -108.97 -833.83 -153.87 1.56 -110.64 834.74 113.36 -3.92 22.16 -183.9z"/>
   <path class="fil7" d="M1784.84 7442.19c45.7,27.76 497.17,10.18 585.82,9.74 197.2,-1 395.57,-3.4 592.67,-1.59 416.86,3.81 3539.63,10.16 3537.33,-13.91l-2.3 -6.67c-38.47,-13.49 -2135.34,-6.63 -2366.64,-6.52 -395,0.19 -790.18,1.75 -1185.33,1.85 -143.22,0.04 -1109.4,-20.77 -1161.55,17.1z"/>
   <polygon class="fil6" points="5740.23,6217.4 5850.02,6218.14 5850.19,6943.24 5967.49,6940.28 5971.42,6217.47 6082.32,6217.33 6078.29,6105.95 5740.86,6106.98 "/>
   <polygon class="fil6" points="2302.92,6217.31 2412.82,6218.03 2412.98,6942.96 2529.76,6940.14 2533.9,6217.4 2644.86,6217.33 2640.74,6106.09 2303.6,6107.05 "/>
   <path class="fil8" d="M2372.02 7210.94c44.21,26.65 2332.54,-0.59 2707.97,1.87l685.8 1.38c36.74,-0.79 73.3,-1.98 110.07,-1.84 45.12,0.18 76.58,14.1 93.73,-20.5 -46.53,-19.36 -2850.86,-5.41 -3404.31,0.51 -44.59,0.48 -174.66,-16.48 -193.26,18.58z"/>
   <polygon class="fil6" points="5546.14,6943.08 5662.9,6940.64 5661.12,6106.36 5545.54,6106.54 "/>
   <polygon class="fil6" points="3124.76,6943 3241.38,6940.64 3239.52,6106.49 3124.24,6106.74 "/>
   <path class="fil9" d="M3793.02 3690.53l260.44 21.44c0.82,-143.85 -59.2,-363.67 -12.19,-483.92 20.23,-51.75 60.25,-63.59 92.72,-92.58 -10.16,-22.07 -236.88,-313.32 -364.12,-313.63 -28.21,16.5 -18.38,0.24 10.97,26.22l71.6 81.09c16.6,22.3 64.85,84.16 67.45,102.43 3.43,24.19 -21.8,55.65 72.39,53.87 14.46,55.19 9.97,24.22 10.91,79.81 0.49,29.55 -1.73,55.24 -1.63,94.29 0.08,34.61 -6.24,73.24 -5.78,101.47 1.82,113.29 26.46,100.42 -48.23,162.69 -156.51,130.49 -51.22,118.31 -191.99,149.84 64.05,3.56 14.79,-0.73 37.46,16.98z"/>
   <path class="fil10" d="M4398.23 3005.13c-44.74,235.49 -244.23,332.61 -200.37,416.28 135.3,258.1 15.98,247.43 27.57,549.65l28.96 -24.18c38.59,-74.49 17.69,-48.43 36.87,-204.36 5.71,-46.45 -1.38,-7.03 13.47,-39.7 11.87,-26.1 7.23,-18.43 12.44,-49.8 13.68,-82.38 -3.08,-73.41 20.42,-87.54 -2.97,-74.32 15.32,-84.66 25.72,-151.66 3.57,-23 8.96,-47.76 14.17,-70.41 21.09,-91.56 110.96,-278.09 25.1,-356.98l-4.35 18.7z"/>
   <path class="fil11" d="M2623.06 5813.16c-41.22,27.63 -36.71,-11.74 -73.79,19.91 21.08,9.36 2183.71,18.47 2337.12,0.45l0.95 -30.85 -2264.28 10.49z"/>
   <path class="fil2" d="M4362.14 5187.12l-3.04 27.88 116.61 48.9c29.78,-32.02 -15.11,-23.93 7.95,-77.57 18.02,-41.92 15.61,-43.77 1.22,-76.21 -21.65,-48.79 18.37,-136.82 18.37,-193.38l-63.24 -194.05c-9.37,-25.18 -15.37,-28.32 -23.91,-52.36 -28.14,-79.18 22.99,-64.4 -15.55,-120.54 -34.27,-49.89 -10.31,-57.4 -57.9,-45.57 -41.86,25.9 -55.49,109.73 -37.62,156.69 48.81,128.2 123.87,233.05 87.68,341.58 -18.48,55.42 -16.47,125.06 -30.57,184.63z"/>
   <path class="fil12" d="M3713.86 2224.53l8.68 -24.01c4.86,-106.48 -62.43,-310.62 -39.82,-472.41 13.86,-99.26 -1.85,-67.13 -19.47,-146.07 38.98,-54.67 39.01,-80.36 8.4,-139.95 -20.4,-39.72 -42.26,-87.62 -81.78,-103.84 -36.95,51.72 -17.78,158.49 3.17,217.07 31.14,87.09 102.21,68.95 63.2,179.34 -79.28,-0.6 -109.64,-95.28 -151.03,-118.15 -37.71,175.47 109.35,139.1 143.69,264.22 20.71,75.45 27.53,298.93 64.96,343.8z"/>
   <path class="fil2" d="M3410.96 2611.12l15.81 33.73c70.58,-17.15 157.26,-67.91 221.42,-44.4 59.65,21.86 106.72,104.73 176.39,97.31 27.3,-36.98 8.25,-73.96 -25.23,-163.51 -14.7,-39.33 -28.79,-28.82 -38.2,-79.58 -6.05,-32.6 -8.86,-65.76 -15,-99 -68.56,40.89 -45.19,25.44 -68.46,85.69 -8,20.72 -9.88,-8.49 -11.57,39.52 14.53,32.65 37.05,29.12 28.75,62.55l-88.27 -4.71c-23.96,42.14 -11.82,22.72 -88.7,53.13 -12.91,5.11 -43.32,19.43 -55.8,20.17 -45.29,2.67 -0.37,-0.51 -25.47,-4.75 -33.77,-5.71 -4.68,-20.03 -25.67,3.85z"/>
   <path class="fil13" d="M5038.34 3318.89c22.18,9.2 54.69,4.8 76.36,-7.53 35.54,-20.23 19.41,-44.02 24.65,-77.14 3.25,-56.52 1.79,-112.96 -1.36,-169.49 -6.04,-108.46 3.14,-124.45 -40.55,-126.2 -21.33,32.79 -62.12,328.78 -59.1,380.36z"/>
   <path class="fil8" d="M5831.69 5833.3c-26.3,-40.97 -143.93,-22.97 -192.9,-23.33 -142.44,-1.07 -587.13,-14.92 -668.32,-0.9 55.03,49.63 324.73,29.69 414.32,29.85 64.31,0.12 417.28,8.05 446.9,-5.62z"/>
   <path class="fil9" d="M4811.25 3686.27c42,-1.4 -0.17,0.44 38.04,-20.99l3.65 37.86 5.4 -5.84 28.58 -7.41c-7.33,-9.78 1.52,-43.53 3.47,-61.94 27.16,-16.75 12.64,0.53 40.1,-20.38 -44.71,-8.39 -69.47,0.78 -109.33,-18.33 4.66,-29.21 35.39,-38.62 64.58,-47.21 74.99,-22.06 152.57,-5.96 188.23,-15.01 51.18,-12.99 64.81,-9.7 118.35,-11.21 -33.32,-42.36 -49.08,-27.22 -103.82,-21.14 -43.63,4.84 -95.53,6.71 -137.4,-4.08 -168.39,-27.39 -257.8,170.1 -139.85,195.68z"/>
   <path class="fil14" d="M3740.33 3664.72c2.25,-75.24 -140.98,-249.86 -220.69,-229.36 -2.53,45.23 45.6,108.17 72.41,143.85 46.76,62.24 61.53,108.49 148.28,85.51z"/>
   <path class="fil13" d="M4758.31 2167.92c7.35,-1.97 159.94,-87.2 168.07,-94.76 28.47,-26.49 115.06,-105.43 127.34,-132.49 -130.58,2.07 -277.8,91.25 -295.41,227.25z"/>
   <path class="fil15" d="M3452.82 6468.28c91.58,4.6 94.11,-40.47 94.98,-118.2 0.94,-85.19 5.48,-134.3 -93.15,-130.28l-1.83 248.48z"/>
   <path class="fil15" d="M4318.33 6468.21c94.08,4.86 92.86,-47.18 93.09,-126.75 0.23,-81.72 1.13,-127.15 -94.96,-121.12l1.87 247.87z"/>
   <path class="fil9" d="M1278.42 7636.93l-0.38 120.61c10.63,-37.32 -12.35,-86.83 41.13,-156.5 49.75,-64.83 22.56,-74.21 135.46,-159.83 47.86,-36.3 53.48,-45.24 121.55,-46.05 14.08,-26.85 -3.29,-4.12 39.48,-18.21 41.79,-13.76 -21.19,27.41 22.04,-12.27 -66.59,-13.03 -64.07,8.36 -122.17,9.74 -44.75,-25.32 -132.58,50.98 -163.17,82.4 -31.52,32.37 -57.95,80.06 -71.02,124.1 -9.14,30.79 -11.12,31.33 -2.92,56.01z"/>
   <path class="fil12" d="M4768.56 2011.94c60.14,-13.01 114.82,-175.1 117.46,-235.27 -18.5,4.63 -128.44,44.4 -138.69,66.11 -10.18,21.55 10.45,145.99 21.23,169.16z"/>
   <path class="fil16" d="M3220.55 2687.54c-23.78,-111.39 -88.55,-152.72 -203.23,-134.97 22.85,77.58 111.25,163.95 203.23,134.97z"/>
   <path class="fil9" d="M5139.35 3234.22c-5.24,33.12 10.89,56.91 -24.65,77.14 -21.67,12.33 -54.18,16.73 -76.36,7.53l-19.03 -6.51c3.4,44.73 13.86,33.66 -15.19,38.67l16.56 17.71c57.66,52.18 158.19,-9.94 211.85,-37.7 -10.29,-29.54 -3.15,-25.87 -35.87,-9.82 -6.92,-119.58 -9.54,-104.43 -38.93,-131.29l-18.38 44.27z"/>
   <path class="fil16" d="M3015.03 2893.92c52.57,8.79 96.58,-18.11 143.81,-40.03 34.84,-16.16 105.96,-31.05 106.08,-73.31 -69.23,-27.88 -269.44,22.88 -249.89,113.34z"/>
   <path class="fil17" d="M4761.74 6641.65l71.44 2.15c9.73,-61.56 -24.6,-283.01 -36.09,-349.4l-35.35 347.25z"/>
   <path class="fil15" d="M2805.97 6641.64l71.41 2.17c9.86,-62.6 -24.64,-281.96 -36.06,-349.4l-35.35 347.23z"/>
   <path class="fil18" d="M5172.54 5738.05c47.29,25.14 196.18,-0.57 255.5,-0.11 18.04,-21.48 12.81,-31.17 31.42,-49.74 20.24,-20.2 3.34,-4.92 26.07,-13.99l33.45 -16.79c-29.23,-15.39 0.72,-16.2 -36.71,-5.96l-23.5 14.31 -6.99 -53.6c-21.07,23.63 8.97,8.39 -18.36,50.71 -8.08,-31.77 -0.94,-71.83 -24.12,-97.94 -8.94,35.87 -5.92,38.32 -3.77,74.78 -31.55,12.01 -7.41,-21 -69.22,51.15 2.3,1.39 5.64,2.42 7.3,3.44l17.08 11.56c7.04,9.06 2.8,19.56 -2.05,23.99 -23.23,21.21 -28.22,4.44 -28.88,4.33 -54.47,-8.93 0.21,-1.42 -46.4,3.33 -36.16,3.69 -49.38,-10.28 -110.82,0.53z"/>
   <path class="fil13" d="M5324.84 3641.15c60.12,28.09 62.6,32.24 116.44,-3.06 25.66,-16.83 82.08,-53.91 99.92,-73.4l-53.76 -37.68c-34.09,18.49 -148.33,84.88 -162.6,114.14z"/>
   <path class="fil16" d="M3326.74 3759.03c57.92,38.12 185.59,22.27 228.87,-34.18 -26.97,-22.54 -88.48,-20.87 -127.2,-20.53 -47.39,0.41 -65.96,22.49 -101.67,54.71z"/>
   <path class="fil16" d="M3171.58 3617c35.72,49.18 122.3,51.9 176.86,36.13 0.57,-12.74 -0.08,-17.49 0.95,-28.49 2.64,-28.23 10.63,-0.54 1.23,-40.52 -55.6,-14.29 -134.75,-1.34 -179.04,32.88z"/>
   <path class="fil19" d="M5022.26 5742.48l129.22 1.57c18.11,-74.4 34.94,-35.06 84.01,-27.22l-8.82 -23.64c11.43,-2.01 17.87,-5.8 30.39,-2.3 24.42,6.83 2.27,-4.21 16.71,15.6 15.02,-1.92 27.99,1.53 28.36,1.51l28.06 -7.61c-37.41,-39.98 -49.54,-23.87 -107.92,-18.97l7.32 -23.81 -26.42 1.47 4.16 -28.71c-25.67,24.88 -17.7,21.88 -35.53,47.03 -27.45,-18.72 -23.71,-29.57 -52.7,-21.6 -16.26,54.55 30.99,84.7 -63.73,74.92l-8.67 -18.98c-0.69,-0.84 -4.24,-1.36 -4.8,-4.08 -0.61,-2.91 -3.39,-3.07 -8.71,-5.22l-10.93 40.04z"/>
   <path class="fil8" d="M3183.71 2445.21c9.46,64.29 96.62,101.72 157.8,84.4 -1.86,-32.59 -20.89,-64.77 -39.97,-90.21l-117.83 5.81z"/>
   <path class="fil9" d="M4654.32 5371.32l27.66 16.62c115.67,-90.23 141.03,19.37 236.07,19.64l37.17 0.1c-79.71,-58.91 -167.26,-116.87 -266.94,-69.3 -36.71,17.53 -21.98,6.38 -33.96,32.94z"/>
   <path class="fil20" d="M5428.04 5737.94c25.32,14.08 270.46,9.01 320.85,6.96l13.94 -3.59 -11.36 -4.53 -87.17 4.02 -76.83 -10.52c38.06,-20.53 39.27,-6.91 67.7,-18.19l42.81 -22.34 -12.69 -31.83 -15.55 11.5 -5.82 -17.91 -35.11 21.46c0.09,0.79 0.73,1.99 0.85,2.24l3.08 6.27c7.89,15.86 4.61,11.79 5.08,9.89 0.37,-1.49 2.16,3.87 2.97,5.93 -79.3,-4.03 -65,35.03 -132.57,34.64 23.6,-18.3 11.47,-10.82 -5.78,-33.77 -21.04,11.52 -16.28,4.91 -24.15,34.52 -34.59,-10.94 -11.52,-8.63 -50.25,5.25z"/>
   <path class="fil11" d="M5244.52 3175.42c-20.53,-18.4 -19.79,-3.86 13.96,-41.32 21.74,-24.12 15.4,-25.77 26.42,-49.17 19.82,-42.1 39.8,-37.15 53.81,-96.23 -40.75,17.55 -67.69,51.75 -96.06,86.4 -41.87,51.13 -56.69,60.08 -42.83,132.29l44.7 -31.97z"/>
   <path class="fil21" d="M5239.75 3450.57l5.43 24.11c148.1,-1.72 154.39,-128.25 120.46,-147.48 -53.31,56.82 -48.28,77.95 -125.89,123.37z"/>
   <path class="fil12" d="M5338.71 2988.7c-14.01,59.08 -33.99,54.13 -53.81,96.23 -11.02,23.4 -4.68,25.05 -26.42,49.17 -33.75,37.46 -34.49,22.92 -13.96,41.32 67.83,-34.19 142.42,-122.86 122.72,-210.07 -20.68,5.78 -19.06,1.18 -28.53,23.35z"/>
   <path class="fil16" d="M5221.79 3683.67c57.06,71.34 184.38,64.14 221.47,50.1 -32.78,-16.85 -75.29,-23.56 -110.25,-41.29 -31.84,-16.14 -86.75,-47.12 -111.22,-8.81z"/>
   <path class="fil4" d="M3600.01 2264.71l20.78 -4.53 -30.95 -27.01 9.63 -42.85c-36.15,-24.45 -85,-68.16 -127.71,-64.21 23.77,40.09 79.38,132.35 128.25,138.6z"/>
   <path class="fil22" d="M4185.38 5680.2c-20.35,21.17 -13.82,15.79 -22.31,46.25l114.97 9.11c-3.53,-38.56 -14.93,-81.87 -39.43,-106.42 -7.21,33.16 -19.17,53.24 -50.76,69.96l-2.47 -18.9z"/>
   <path class="fil23" d="M4280.1 5193.7c6.98,-11.35 37.24,-24.66 9.38,-51.4 -67.15,-64.43 -129.67,87.55 -9.38,51.4z"/>
   <path class="fil8" d="M3520.43 3679.28c-11.6,-38.7 -78.68,-76.68 -121.63,-78.35 19.74,35.26 76.58,76.7 121.63,78.35z"/>
   <path class="fil24" d="M4185.38 5680.2l2.47 18.9c31.59,-16.72 43.55,-36.8 50.76,-69.96l-13.78 -25.91c-21.9,20.95 -38.21,48.15 -39.45,76.97z"/>
   <path class="fil25" d="M4228.78 4313.61c24.99,-21.5 34.31,-48.96 40.13,-81.95l-49.24 0.38 9.11 81.57z"/>
   <path class="fil8" d="M2870.97 2505.81l103.13 -14.4 -3.04 -34.34c-30.05,-0.59 -78.63,27.29 -100.09,48.74z"/>
   <path class="fil26" d="M3595.31 5721.48c4.67,-23.83 -1.82,-4.05 15.53,-18.85l21.87 -23.39 -55.61 -32.2c1.62,32.81 -4.55,56.1 18.21,74.44z"/>
   <path class="fil26" d="M2282.31 5741.22l-29.33 -9.25c0.82,35.27 1.99,63.33 17.46,93.39 17.11,-24.08 13.97,-51.46 11.87,-84.14z"/>
   <path class="fil27" d="M5664.3 5740.8l87.17 -4.02c-2.5,-25.32 -7.03,-34.36 -27.87,-47.23 -17.88,-7.96 -2.65,-14.48 -15.81,-2.16 18.97,39.76 14.16,2.87 2.42,35.45l-45.91 17.96z"/>
   <path class="fil28" d="M4211.23 4909.5c7.93,10.03 -12.48,7.71 22.38,13.68 14.04,-24.26 18.31,-38.01 9.28,-67.63 -14.24,14.85 -27.58,27.07 -31.66,53.95z"/>
   <path class="fil29" d="M5207.33 5630.37l-4.16 28.71 26.42 -1.47c7.45,-41.6 23.37,-35.02 25.92,-53.35 0.39,-2.81 0.85,-4 -1.64,-9.26l-46.54 35.37z"/>
   <path class="fil30" d="M4211.23 4909.5c4.08,-26.88 17.42,-39.1 31.66,-53.95 -13.92,-24.35 7.27,-13.65 -26.53,-19.77 -13.12,20.58 -17.58,55.38 -5.13,73.72z"/>
   <path class="fil31" d="M3426.77 2644.85l-15.81 -33.73c-26.42,-17.46 -16.14,-18.21 -50.87,-22.5 16.85,24.74 37.3,45.26 66.68,56.23z"/>
   <path class="fil19" d="M3612.06 3661.41c-6.98,-22.48 -22.28,-43.16 -43.95,-44.68 6.72,30.88 12.66,39.95 43.95,44.68z"/>
   <path class="fil32" d="M4391.77 5622.73l9.48 9.23c29.93,-12.49 39.92,-16.93 41.4,-47.82l-50.88 38.59z"/>
   <path class="fil33" d="M4115.91 5571.51c28.49,-8.8 32.52,-10.93 32.03,-41.7 -28.19,8.1 -30.41,9.66 -32.03,41.7z"/>
   <path class="fil29" d="M4811.25 3686.27c8.88,20.38 14.87,13.66 41.69,16.87l-3.65 -37.86c-38.21,21.43 3.96,19.59 -38.04,20.99z"/>
   <path class="fil30" d="M5235.49 5716.83l38.28 -10.34c-14.44,-19.81 7.71,-8.77 -16.71,-15.6 -12.52,-3.5 -18.96,0.29 -30.39,2.3l8.82 23.64z"/>
   <polygon class="fil34" points="5685.29,5657.92 5681.71,5643.34 5663.92,5651.51 5669.74,5669.42 "/>
   <path class="fil30" d="M4099.89 5594.32c-26.7,3.04 -13.27,-5.78 -18.26,17.54 20.57,-8.23 8.69,5.72 18.26,-17.54z"/>
   <path class="fil33" d="M4167.35 5594.35c-26.4,1.75 -13.88,-6.8 -15.67,15.98 17.58,-6.47 7.07,6.03 15.67,-15.98z"/>
   <path class="fil35" d="M3542.45 5401.73c28.11,16.76 6.02,4.44 22.54,-1.63 -19.55,-10.37 9.66,-13.7 -13.38,-5.75l-9.16 7.38z"/>
   <path class="fil32" d="M1879.6 4343.4c-2.45,12.7 12.44,8.11 11.35,-1.7 -1.42,-12.75 -7.96,-15.9 -11.35,1.7z"/>
   <path class="fil36" d="M2116.66 1439.33c8.2,8.19 26.77,-10.89 9.77,-4.54 -0.2,0.08 -21.26,-6.95 -9.77,4.54z"/>
   <path class="fil37" d="M6400.78 4605.86c0,19.67 10.44,1.26 5.23,0 -0.1,-0.02 -5.23,-21.83 -5.23,0z"/>
   <path class="fil36" d="M7230.51 5825.06c0.82,0.82 2.45,-3.6 2.45,-2.45 0.01,0.47 1.05,-1.04 1.01,-1.01 -0.2,0.2 -14.83,-7.91 -3.46,3.46z"/>
   <path class="fil38" d="M5122.32 474.13c0.82,0.82 2.45,-3.6 2.45,-2.45 0,0.48 1.04,-1.04 1.01,-1.01 -0.2,0.2 -14.83,-7.91 -3.46,3.46z"/>
  </g>
 </g>
</svg>
