<?xml version="1.0" encoding="UTF-8"?>
<!DOCTYPE svg PUBLIC "-//W3C//DTD SVG 1.1//EN" "http://www.w3.org/Graphics/SVG/1.1/DTD/svg11.dtd">
<!-- Creator: CorelDRAW 2021.5 -->
<svg xmlns="http://www.w3.org/2000/svg" xml:space="preserve" width="86.6986mm" height="86.6986mm" version="1.1" style="shape-rendering:geometricPrecision; text-rendering:geometricPrecision; image-rendering:optimizeQuality; fill-rule:evenodd; clip-rule:evenodd"
viewBox="0 0 8669.86 8669.86"
 xmlns:xlink="http://www.w3.org/1999/xlink"
 xmlns:xodm="http://www.corel.com/coreldraw/odm/2003">
 <defs>
  <style type="text/css">
   <![CDATA[
    .fil3 {fill:#221A1D}
    .fil0 {fill:#332B29}
    .fil8 {fill:#53443B}
    .fil9 {fill:#6D584B}
    .fil10 {fill:#877268}
    .fil7 {fill:#988976}
    .fil6 {fill:#AD9D8C}
    .fil2 {fill:#D3C9B1}
    .fil5 {fill:#D7C39B}
    .fil4 {fill:#E8D4AA}
    .fil1 {fill:#EDE1C2}
   ]]>
  </style>
   <clipPath id="id0">
    <rect x="1016" y="-33.26" width="6764.88" height="8720.06"/>
   </clipPath>
 </defs>
 <g id="Слой_x0020_1">
  <metadata id="CorelCorpID_0Corel-Layer"/>
  <g style="clip-path:url(#id0)">
   <image x="1016" y="-33.26" width="6764.89" height="8720.06" xlink:href="logologo2_Images\logologo2_ImgID1.png"/>
  </g>
  <g id="_2031864527936">
   <path class="fil0" d="M1827.32 8360.93c65.01,-50.74 2306.79,-33.28 2694.94,-36.81 152.11,-1.38 304.16,-0.4 456.21,-3.25 90.8,-1.71 406.66,-44.66 444.36,25.1 -42,36.47 -1606.2,27.72 -1786.91,27.69 -229.88,-0.03 -1715.32,20.71 -1808.6,-12.73zm3724.54 -43.24l1016.81 6.38c79.53,0.67 270.4,-27.88 310.32,36.97 -32.59,14.76 -1011.8,13.78 -1196.14,7.45 -58.55,-2 -96.83,-10.32 -130.99,-50.8zm-2805.76 -4481.67c-121.13,22.68 -505.77,-36.09 -610.09,-99.76 -38.92,-23.75 -128.83,-89.21 -69.46,-136.6 150.56,-120.14 684.86,103.22 679.55,236.36zm-12.96 -925.6c20.5,2.13 284.1,118.93 308.05,132.68 26.9,52.2 56.03,192.2 46.27,258.88 -139.68,-1.03 -369.12,-259.51 -354.32,-391.56zm-515.77 -35.27c65.46,8.67 282.41,157.57 329.39,214.07 81.84,98.42 160.16,296.99 134.51,421.07 -229.15,-24.83 -478.51,-542.63 -463.9,-635.14zm4001.37 267.97c14.76,-84.32 170.72,-226.39 246.44,-270.05 94.08,-54.23 359.46,-105.15 447.54,-51.74 -27.25,38.49 -253.1,174.92 -310.12,204.31 -22.18,11.45 -376.44,117.72 -383.86,117.48zm-4297.91 -649.64c108.04,1.01 262.12,15.98 232.19,158.87 -49.54,24.28 -95.37,0.5 -124.55,-43.83 -62.67,-33.94 -154.27,-55.8 -192.82,-115.66l85.18 0.62zm4387.74 336.67c-8.1,-22.54 7.78,-315.83 26.82,-346.8 26.28,-42.72 255.06,-71.73 314.55,-80.34 -6.76,114.44 -218.16,430.13 -341.37,427.14zm-1777.46 1640.8c44.87,37.5 17.83,36.31 54.77,70.84 30.08,-53.59 26.43,-93.24 70.44,-136.4 6.42,-42.09 99.66,-372 116.88,-424.09 30.36,-91.84 185.81,-220.02 264.43,-279.4 299.39,-226.05 482.91,-204.88 759.25,-336.89 45.88,-107.12 112.97,-762.72 339.79,-711.5 79.65,145.61 -59.21,378.86 -117.13,506.31 -27.42,60.34 -64.98,174.31 -99.6,224.19 -77.47,111.66 -183.5,-8.38 -224.14,115.44 132.87,99.95 736.39,-178.06 774.63,92.99 -119.34,134.44 -1362.12,75.73 -1503.4,805.95l57.11 -78.12c-14.04,90.65 -68.58,264.69 -24.69,343.58 65.72,118.09 150.64,45.64 85.09,258.17 -60.23,195.32 -193.03,361.68 -269.54,578.61 -135.05,382.86 -40.8,1420.27 -124.44,1557.94l-26.25 -287.77 -10.51 377.86 31.84 -45.62c37.42,125.77 10.26,152.58 33.19,194.52 27.52,50.37 39.38,3.6 23.83,111.78 -3.31,23.08 -20.23,13.57 17.9,22.11 10.98,25.59 8.66,0.73 -19.49,25.97l368.24 215.03c204.74,-117.42 205.46,19.55 411.36,54.82 273.24,46.81 663.97,-92.96 976.95,170.31 72.76,61.2 252.08,231.39 264.67,319.64l-252.92 8.6 -84.77 -3.17 -166.56 -0.66c-51.55,-23.09 -22.37,-17.5 -75.89,-5.16 -51.39,11.87 -56.7,10.61 -108.55,10.39 -51.86,-0.21 -169.81,4.48 -208.64,-13.08l-1271.09 -0.71c-36.97,-143.84 129.11,-138.57 146.29,-226.88l-10.43 -11.81 -242.75 234.59c-108.23,-37.68 -82.71,25.28 -160,-46.86 60.61,-28.37 88.5,-40.29 99.4,-116.35l-23.72 -33.77 -94.42 170.07 -128.9 19.46 11.97 -152.44c-65.93,56.76 8.53,132.63 -110.64,158.48l-22.28 -101.22c-78.39,19.86 -56.17,120.6 -164.49,88.83l-69.65 -290.96c-76.02,15.18 -12.18,220.71 -45.55,277.84 -21.5,36.79 -77.8,40.4 -108.12,17.18 -47.07,-36.02 -7.59,-55.44 -18.06,-119.28 -62.11,11.7 -79.15,154.7 -214.56,115.42 -36.88,-46 -31.27,-154.08 -39.03,-217.18 -19.61,-159.19 25.69,-151.61 27.17,-207.74l-141.77 60.84c-5.34,33.73 64.66,273.29 78.04,325 -39.09,16.57 -234.59,39.25 -266.97,16.55 -73.57,-51.56 -44.97,-168.99 -83.58,-217.65l39.86 257.43 -1043.88 8.18c-11.63,-72.59 255.16,-313.83 345.76,-346.41 179.9,-64.69 392.63,-34.54 577.79,-127.84 159.83,-80.53 253.48,-186.46 456.97,-246.3 144.85,-42.59 369.9,125.68 601.13,12.54 9.06,-12.44 152.74,-479.08 155.49,-508.34 58.35,-618.28 -330.79,-1496.37 -33.3,-1730.96l34.75 -93.25c-59.07,-13.54 -20.03,-4.9 -27.52,-169.67 -3.48,-76.62 -19.11,-81 -81.83,-69.54 -18.77,-63.91 -56.53,-116.6 -61.36,-177.4 -11.75,-147.73 -9.89,-43.04 -67.08,-151.41 30.31,-58.49 -30.45,-17.3 48.72,-46.29l-386.49 -315.73 79.21 -243.25c-121.1,-127.89 -512.4,-82.03 -648.86,-173.77 -74.11,-49.82 -206.83,-572.6 -198.47,-590.51l283.61 222.28c98.89,40.36 101.56,110.58 127.28,206.83 152.11,100.67 364.16,-47.06 528.86,124.22 93.34,97.08 160.54,352.61 299.29,371.44 97.01,-70.45 104.63,-389.82 79.33,-503.36 -36.15,-162.31 62,-460.11 5.96,-535.96l-154.54 -4.17 -171.07 -261.38c-59.36,-33.9 -63.78,-98.99 -80.5,-166.75 -15.24,-61.75 -44.2,-126.81 -46.43,-187.74 70.54,4.63 142.93,100.59 174.17,160.22l44.66 57.04 262.82 253.05c7.72,-210.02 -16.59,-488.35 51.5,-691.94 8.79,-263.27 49.03,-290.1 -103.03,-495.24 -17.65,-23.83 -110.05,-150.47 -120.06,-179.23 -12.83,-36.83 14.65,-202.31 31.8,-234.07 54.03,7.44 78.61,119.01 110.7,168.95 36.24,56.42 102.47,107.45 128.59,156.26 243.69,37.55 29.05,-299.13 5.9,-357.03 -54.35,-135.82 -31.49,-385.76 51.62,-505.14 70.12,17.41 131.52,175.53 156.09,246.43 62.69,180.9 31.19,174.88 -67.79,296.92 0.22,248.18 46.93,102.69 -36.9,381.58 -62.07,206.53 -201.6,1126.72 -120.22,1231.41l352.24 -273.8c40.38,51.94 -111.28,254.31 -147.89,412.94 -54.88,237.79 2.25,354.2 -24.67,525.8 -24.2,154.29 -101.58,291.46 -116.82,461.84 -24.45,273.43 164.13,151.03 223.9,346.52zm-1494.77 -3943.8l36.04 8.79c-65.5,49.11 -128.07,89.25 -190.86,127.03 -71.08,42.78 -80.87,113.65 -143.92,155.23 -107.99,71.25 -274.43,149.73 -398.15,215.36 -42.53,22.57 -126,87.72 -179.36,118.76 -65.62,38.18 -118.87,58.91 -203.13,110.18 -102.51,62.37 -98.33,23.91 -149.21,144.16 -33.93,80.19 -56.54,95.11 -34.65,155.66 486.1,-324.1 1930.98,-1160.82 2464.62,-1202.83 512.71,-40.35 951.27,215.97 1388.89,444.87 372.92,195.04 828.77,432.05 1176.13,661.79 496.84,328.6 576.56,677.24 597.02,1240.15 22.14,609.38 3.05,1225.32 4.05,1835.54 1.01,612.45 -3.17,1225.76 0.01,1837.87 2.85,547.81 40.37,1281.42 -25.66,1810.1 -47.28,-10.8 -20.35,-4931.49 -29.47,-5395.11 -19.61,-998.33 -263.18,-1153.25 -1101.44,-1607.14 -513.86,-278.24 -1353.61,-815.2 -1930.14,-791.83 -563.92,22.86 -1365.49,563.32 -1878.25,837.58 -934.51,499.88 -1021.59,608.55 -1031.07,1692.65 -7.9,903.44 8.51,1807.21 3.45,2710.78 -2.53,451.84 0.18,903.72 1.75,1355.58 1.37,393.76 33.03,964.55 -22.01,1338.02 -47.11,-42.27 -87.34,-5679.99 -6.21,-6153.96 -171.02,-7.76 -61.21,1241.96 -86.22,1268.14l-13.61 -179.43c-53.69,43.06 -30.41,1131.1 -36.83,1289.84 -8.42,208.04 -48.22,445.21 -62.61,665.49 -27.45,420.31 12.99,981.55 12.81,1423.79 -0.08,220.07 54.71,492.78 45.86,667.73 -21.78,429.69 59.52,865.48 -113.52,1270.59 1643.22,0 3286.45,0 4929.69,0 203.12,0 1536,53.76 1607.25,-35.09 31.47,-39.24 77.96,-6051.96 -30.02,-6364.84l12.71 121.87c-42.07,0.39 -26.46,-58.32 -26.89,-58.99 -0.09,-0.16 -84.8,-36.64 -127.03,-216.4 -51.42,-218.87 -48.34,-148.37 -158.64,-318.4 -146.89,-226.38 -313.6,-278.26 -515.23,-431.55 -106.27,-80.8 -457.62,-334.91 -560.87,-388.04 -149.52,-76.93 -510.97,-251.92 -632.28,-363.29l39.96 -0.65c-140.18,-196.67 -1050.66,-483.28 -1316.48,-483.28 -269.52,0 -1173.89,282.92 -1316.48,483.28z"/>
   <path class="fil1" d="M4255.65 1703.48l-52.3 7.23c32.98,114.59 37.95,164.45 40.48,289.4l-36.18 286.7c-68.09,203.59 -43.78,481.92 -51.5,691.94l-262.82 -253.05c-57.49,-8.66 -60.63,-17.89 -119.55,10.65l1.77 49.6 25.88 76.98 171.07 261.38 154.54 4.17c56.04,75.85 -42.11,373.65 -5.96,535.96 25.3,113.54 17.68,432.91 -79.33,503.36 -138.75,-18.83 -205.95,-274.36 -299.29,-371.44 -164.7,-171.28 -376.75,-23.55 -528.86,-124.22 -68.24,-25.91 -102.77,-139.46 -127.28,-206.83l-283.61 -222.28c-8.36,17.91 124.36,540.69 198.47,590.51 136.46,91.74 527.76,45.88 648.86,173.77l-79.21 243.25 386.49 315.73 50.24 75.62c78.7,45.51 54.65,160.43 151.84,183 108.26,25.12 157.86,-21.31 240.55,84.3l-35.76 34.46c-85.52,10.25 -171.89,211.49 -217.8,236.93l-34.75 93.25c-20.67,60.93 33.74,316.19 32.32,389.26 -3.51,180.21 113.68,181.66 86.04,331.12 -7.33,39.61 21.29,350.21 36.87,390.16 47.54,121.85 -16.47,347.92 84.78,405.58 -127.5,-16.47 -44.36,135.45 -18.59,180.65 41.39,72.63 -12.72,159.8 58.42,235.37l219.5 24.93 29.93 -43.02 -6.8 -1.95 -68.96 -443.89c-47.61,-96.62 -54.57,-166.91 -66.56,-271.28 -3.5,-30.37 -7.72,-56.22 -9.29,-80.84 -0.95,-14.96 -0.31,-28.62 -1.01,-38.95 -2.59,-37.87 -11.7,-335.58 38.3,-245.1l5.14 -43.35c28.3,-254.73 -288.46,-553.35 141.28,-887.45 132.43,-102.95 184.2,-171.86 279.07,-308.35 99.73,-143.47 -85.74,-224.29 14.95,-468.35 141.28,-730.22 1384.06,-671.51 1503.4,-805.95 -38.24,-271.05 -641.76,6.96 -774.63,-92.99 40.64,-123.82 146.67,-3.78 224.14,-115.44 34.62,-49.88 72.18,-163.85 99.6,-224.19 57.92,-127.45 196.78,-360.7 117.13,-506.31 -226.82,-51.22 -293.91,604.38 -339.79,711.5 -276.34,132.01 -459.86,110.84 -759.25,336.89 -78.62,59.38 -234.07,187.56 -264.43,279.4 -17.22,52.09 -110.46,382 -116.88,424.09 -7.23,63.55 -60.16,206.44 -119.68,225.89 4.53,-95.68 17.03,-50.64 -5.53,-160.33 -59.77,-195.49 -248.35,-73.09 -223.9,-346.52 15.24,-170.38 92.62,-307.55 116.82,-461.84 26.92,-171.6 -30.21,-288.01 24.67,-525.8 36.61,-158.63 188.27,-361 147.89,-412.94l-352.24 273.8c-81.38,-104.69 58.15,-1024.88 120.22,-1231.41 83.83,-278.89 37.12,-133.4 36.9,-381.58 98.98,-122.04 130.48,-116.02 67.79,-296.92 -24.57,-70.9 -85.97,-229.02 -156.09,-246.43 -83.11,119.38 -105.97,369.32 -51.62,505.14 23.15,57.9 237.79,394.58 -5.9,357.03z"/>
   <path class="fil2" d="M5942.24 8152.39c35.97,-23.31 30.89,-17.64 78.13,-10.38 -21.67,39.77 -46.3,49.9 -78.13,10.38zm-30.83 -59.57c10.76,-50.78 38.3,-82.5 83.7,-94.01l-41.15 73.4c-34.72,34.39 -2,12.02 -42.55,20.61zm-1674.82 -134.64c2.31,-51 5.3,-53.28 50.62,-65.48 0.51,48.47 -4.42,52.15 -50.62,65.48zm187.76 -670.78c49.93,-7.56 62.12,-7.31 94.22,30.81 -6.38,42.22 -2.42,31.02 -35.78,66.56l-77.65 -9.82 19.21 -87.55zm2.03 758.72c37.41,37.84 55.1,104.08 60.6,163.21l242.75 -234.59 10.43 11.81c-17.18,88.31 -183.26,83.04 -146.29,226.88l1271.09 0.71c43.2,-7.1 72.47,-7.27 118.05,-3.51 44.12,3.63 4.3,7.34 51.44,2.49 17.45,-1.78 42.41,-11.87 42.75,-11.88 46.4,-3 26.8,43.21 73.71,0.31 6.13,-5.62 11.84,-20.97 7.87,-30.38l-42.28 -30.82c19.83,-21.32 15.26,-13.72 24.85,-23.46 14.5,-14.75 17.35,-19.97 24.43,-27.33 2.37,-2.46 8.25,-9.48 10.79,-11.42 1.48,-1.13 4.61,-3.4 6.21,-4.36l40.79 -11.5c-4.61,-53.19 -7.48,-61.92 3.64,-115.32 40.9,47.63 19.93,95.11 39.61,152.81 31.3,-57.29 1.91,-52.9 27.25,-79.07l10.24 82.66c46.52,-14.57 30.19,-21.87 60.39,-22.25 33.95,-0.45 -6.45,-10.75 32.53,8.3 -3,2.81 -8.11,1.91 -10.13,7.05 -1.95,5.02 -7.45,5.14 -10.19,6.43 -34.93,16.49 4.36,-1.97 -31.42,12.52 -58.36,23.62 -54.69,36.53 -87.45,106.58l166.56 0.66c29.45,-59.65 94.38,-77.82 159.28,-72.94l-23.46 -33.82c64.4,-40.32 22.95,-34.73 92.03,-56.9l25.63 80.41 -49.05 22.98c-2.34,1.14 -5.61,3.08 -7.88,4.16 -96.65,45.94 -93.78,-23.2 -111.78,59.28l252.92 -8.6c-12.59,-88.25 -191.91,-258.44 -264.67,-319.64 -312.98,-263.27 -703.71,-123.5 -976.95,-170.31 -205.9,-35.27 -206.62,-172.24 -411.36,-54.82l-368.24 -215.03c-40.73,-1.21 -92.21,-27.08 -128.82,-48.63l28.66 -220.89 -29.93 43.02 -219.5 -24.93c-71.14,-75.57 -17.03,-162.74 -58.42,-235.37 -25.77,-45.2 -108.91,-197.12 18.59,-180.65 -101.25,-57.66 -37.24,-283.73 -84.78,-405.58 -15.58,-39.95 -44.2,-350.55 -36.87,-390.16 27.64,-149.46 -89.55,-150.91 -86.04,-331.12 1.42,-73.07 -52.99,-328.33 -32.32,-389.26 -297.49,234.59 91.65,1112.68 33.3,1730.96 -2.75,29.26 -146.43,495.9 -155.49,508.34 -231.23,113.14 -456.28,-55.13 -601.13,-12.54 -203.49,59.84 -297.14,165.77 -456.97,246.3 -185.16,93.3 -397.89,63.15 -577.79,127.84 -90.6,32.58 -357.39,273.82 -345.76,346.41l1043.88 -8.18 -39.86 -257.43c38.61,48.66 10.01,166.09 83.58,217.65 32.38,22.7 227.88,0.02 266.97,-16.55 -13.38,-51.71 -83.38,-291.27 -78.04,-325l141.77 -60.84c-1.48,56.13 -46.78,48.55 -27.17,207.74 7.76,63.1 2.15,171.18 39.03,217.18 135.41,39.28 152.45,-103.72 214.56,-115.42 10.47,63.84 -29.01,83.26 18.06,119.28 30.32,23.22 86.62,19.61 108.12,-17.18 33.37,-57.13 -30.47,-262.66 45.55,-277.84l69.65 290.96c108.32,31.77 86.1,-68.97 164.49,-88.83l22.28 101.22c119.17,-25.85 44.71,-101.72 110.64,-158.48l-11.97 152.44 128.9 -19.46 94.42 -170.07 23.72 33.77z"/>
   <path class="fil3" d="M1130.65 8582.53c173.04,-405.11 91.74,-840.9 113.52,-1270.59 8.85,-174.95 -45.94,-447.66 -45.86,-667.73 0.18,-442.24 -40.26,-1003.48 -12.81,-1423.79 14.39,-220.28 54.19,-457.45 62.61,-665.49 6.42,-158.74 -16.86,-1246.78 36.83,-1289.84l13.61 179.43c25.01,-26.18 -84.8,-1275.9 86.22,-1268.14 158.13,-415.85 121.84,-304.65 388.33,-614.06 -21.89,-60.55 0.72,-75.47 34.65,-155.66 50.88,-120.25 46.7,-81.79 149.21,-144.16 84.26,-51.27 137.51,-72 203.13,-110.18 53.36,-31.04 136.83,-96.19 179.36,-118.76 123.72,-65.63 290.16,-144.11 398.15,-215.36 63.05,-41.58 72.84,-112.45 143.92,-155.23 62.79,-37.78 125.36,-77.92 190.86,-127.03l-36.04 -8.79c-237.42,59.27 -1386.22,752.05 -1574.38,941.35 -537.95,541.2 -393.82,1429.5 -393.82,2147.89 0,838.84 -0.52,1678.27 -0.23,2515.73 0.16,416.01 -13.31,834.18 -13.81,1252.24 -0.24,204.63 14.23,414.93 14.09,624.59 -0.09,130.51 -48.45,511.06 62.46,573.58z"/>
   <path class="fil1" d="M1773.1 1562.32c-266.49,309.41 -230.2,198.21 -388.33,614.06 -81.13,473.97 -40.9,6111.69 6.21,6153.96 55.04,-373.47 23.38,-944.26 22.01,-1338.02 -1.57,-451.86 -4.28,-903.74 -1.75,-1355.58 5.06,-903.57 -11.35,-1807.34 -3.45,-2710.78 9.48,-1084.1 96.56,-1192.77 1031.07,-1692.65 512.76,-274.26 1314.33,-814.72 1878.25,-837.58 576.53,-23.37 1416.28,513.59 1930.14,791.83 838.26,453.89 1081.83,608.81 1101.44,1607.14 9.12,463.62 -17.81,5384.31 29.47,5395.11 66.03,-528.68 28.51,-1262.29 25.66,-1810.1 -3.18,-612.11 1,-1225.42 -0.01,-1837.87 -1,-610.22 18.09,-1226.16 -4.05,-1835.54 -20.46,-562.91 -100.18,-911.55 -597.02,-1240.15 -347.36,-229.74 -803.21,-466.75 -1176.13,-661.79 -437.62,-228.9 -876.18,-485.22 -1388.89,-444.87 -533.64,42.01 -1978.52,878.73 -2464.62,1202.83z"/>
   <path class="fil3" d="M4967.03 4398.39c-100.69,244.06 84.78,324.88 -14.95,468.35 -94.87,136.49 -146.64,205.4 -279.07,308.35 -429.74,334.1 -112.98,632.72 -141.28,887.45 72.73,89.95 122.25,569.34 132.58,708.26l26.25 287.77c83.64,-137.67 -10.61,-1175.08 124.44,-1557.94 76.51,-216.93 209.31,-383.29 269.54,-578.61 65.55,-212.53 -19.37,-140.08 -85.09,-258.17 -43.89,-78.89 10.65,-252.93 24.69,-343.58l-57.11 78.12z"/>
   <path class="fil3" d="M7637.57 2182.6c41.93,-145.8 -189.64,-497.34 -283.8,-615.65 -157.75,-198.21 -299.54,-272.81 -502.17,-410.23 -118.65,-80.47 -1119.65,-638.45 -1182.3,-629.57l-39.96 0.65c121.31,111.37 482.76,286.36 632.28,363.29 103.25,53.13 454.6,307.24 560.87,388.04 201.63,153.29 368.34,205.17 515.23,431.55 110.3,170.03 107.22,99.53 158.64,318.4 42.23,179.76 126.94,216.24 127.03,216.4 0.43,0.67 -15.18,59.38 26.89,58.99l-12.71 -121.87z"/>
   <path class="fil4" d="M1827.32 8360.93c93.28,33.44 1578.72,12.7 1808.6,12.73 180.71,0.03 1744.91,8.78 1786.91,-27.69 -37.7,-69.76 -353.56,-26.81 -444.36,-25.1 -152.05,2.85 -304.1,1.87 -456.21,3.25 -388.15,3.53 -2629.93,-13.93 -2694.94,36.81z"/>
   <path class="fil1" d="M2546.76 3089.22c-46.98,-56.5 -263.93,-205.4 -329.39,-214.07 -14.61,92.51 234.75,610.31 463.9,635.14 25.65,-124.08 -52.67,-322.65 -134.51,-421.07z"/>
   <path class="fil1" d="M2746.1 3836.02c5.31,-133.14 -528.99,-356.5 -679.55,-236.36 -59.37,47.39 30.54,112.85 69.46,136.6 104.32,63.67 488.96,122.44 610.09,99.76z"/>
   <path class="fil2" d="M4634.11 7185.95l19.69 -37.29 10.51 -377.86c-10.33,-138.92 -59.85,-618.31 -132.58,-708.26l-5.14 43.35c-50,-90.48 -40.89,207.23 -38.3,245.1 0.7,10.33 0.06,23.99 1.01,38.95 1.57,24.62 5.79,50.47 9.29,80.84 11.99,104.37 18.95,174.66 66.56,271.28l68.96 443.89z"/>
   <path class="fil1" d="M6218.74 3143.12c7.42,0.24 361.68,-106.03 383.86,-117.48 57.02,-29.39 282.87,-165.82 310.12,-204.31 -88.08,-53.41 -353.46,-2.49 -447.54,51.74 -75.72,43.66 -231.68,185.73 -246.44,270.05z"/>
   <path class="fil1" d="M6308.57 2830.15c123.21,2.99 334.61,-312.7 341.37,-427.14 -59.49,8.61 -288.27,37.62 -314.55,80.34 -19.04,30.97 -34.92,324.26 -26.82,346.8z"/>
   <path class="fil3" d="M4146.39 5180.6c45.91,-25.44 132.28,-226.68 217.8,-236.93l13.71 -35.29c-153.64,-151.33 -220.7,104.93 -370.34,-266.47l-50.24 -75.62c-79.17,28.99 -18.41,-12.2 -48.72,46.29 57.19,108.37 55.33,3.68 67.08,151.41 4.83,60.8 42.59,113.49 61.36,177.4 62.72,-11.46 78.35,-7.08 81.83,69.54 7.49,164.77 -31.55,156.13 27.52,169.67z"/>
   <path class="fil5" d="M4207.65 2286.81l36.18 -286.7c-2.53,-124.95 -7.5,-174.81 -40.48,-289.4l52.3 -7.23c-26.12,-48.81 -92.35,-99.84 -128.59,-156.26 -32.09,-49.94 -56.67,-161.51 -110.7,-168.95 -17.15,31.76 -44.63,197.24 -31.8,234.07 10.01,28.76 102.41,155.4 120.06,179.23 152.06,205.14 111.82,231.97 103.03,495.24z"/>
   <path class="fil4" d="M3041.19 3043.1c-23.95,-13.75 -287.55,-130.55 -308.05,-132.68 -14.8,132.05 214.64,390.53 354.32,391.56 9.76,-66.68 -19.37,-206.68 -46.27,-258.88z"/>
   <path class="fil4" d="M5551.86 8317.69c34.16,40.48 72.44,48.8 130.99,50.8 184.34,6.33 1163.55,7.31 1196.14,-7.45 -39.92,-64.85 -230.79,-36.3 -310.32,-36.97l-1016.81 -6.38z"/>
   <path class="fil6" d="M5864.96 8214.14c38.83,17.56 156.78,12.87 208.64,13.08 51.85,0.22 57.16,1.48 108.55,-10.39 53.52,-12.34 24.34,-17.93 75.89,5.16 32.76,-70.05 29.09,-82.96 87.45,-106.58 35.78,-14.49 -3.51,3.97 31.42,-12.52 2.74,-1.29 8.24,-1.41 10.19,-6.43 2.02,-5.14 7.13,-4.24 10.13,-7.05 -38.98,-19.05 1.42,-8.75 -32.53,-8.3 -30.2,0.38 -13.87,7.68 -60.39,22.25l-10.24 -82.66c-25.34,26.17 4.05,21.78 -27.25,79.07 -19.68,-57.7 1.29,-105.18 -39.61,-152.81 -11.12,53.4 -8.25,62.13 -3.64,115.32l-40.79 11.5c-1.6,0.96 -4.73,3.23 -6.21,4.36 -2.54,1.94 -8.42,8.96 -10.79,11.42 -7.08,7.36 -9.93,12.58 -24.43,27.33 -9.59,9.74 -5.02,2.14 -24.85,23.46l42.28 30.82c3.97,9.41 -1.74,24.76 -7.87,30.38 -46.91,42.9 -27.31,-3.31 -73.71,-0.31 -0.34,0.01 -25.3,10.1 -42.75,11.88 -47.14,4.85 -7.32,1.14 -51.44,-2.49 -45.58,-3.76 -74.85,-3.59 -118.05,3.51z"/>
   <path class="fil3" d="M4653.8 7148.66l-19.69 37.29 6.8 1.95 -28.66 220.89c36.61,21.55 88.09,47.42 128.82,48.63 28.15,-25.24 30.47,-0.38 19.49,-25.97 -38.13,-8.54 -21.21,0.97 -17.9,-22.11 15.55,-108.18 3.69,-61.41 -23.83,-111.78 -22.93,-41.94 4.23,-68.75 -33.19,-194.52l-31.84 45.62z"/>
   <path class="fil5" d="M2028.47 2608.52c64.8,24.82 30.41,31.09 99.16,31.58 14.14,-155.2 -112.8,-73.87 -206.8,-146.62l-85.18 -0.62c38.55,59.86 130.15,81.72 192.82,115.66z"/>
   <path class="fil7" d="M3801.43 2862.93l-25.88 -76.98c-27.89,-33.81 -43.27,-110.26 -34.91,-159.66 82.44,-18.63 39.18,9.1 108.03,42.37 -31.24,-59.63 -103.63,-155.59 -174.17,-160.22 2.23,60.93 31.19,125.99 46.43,187.74 16.72,67.76 21.14,132.85 80.5,166.75z"/>
   <path class="fil6" d="M6424.6 8222.65l84.77 3.17c18,-82.48 15.13,-13.34 111.78,-59.28 2.27,-1.08 5.54,-3.02 7.88,-4.16l49.05 -22.98 -25.63 -80.41c-69.08,22.17 -27.63,16.58 -92.03,56.9l23.46 33.82c-64.9,-4.88 -129.83,13.29 -159.28,72.94z"/>
   <path class="fil8" d="M4486.98 8209.33c-5.5,-59.13 -23.19,-125.37 -60.6,-163.21 -10.9,76.06 -38.79,87.98 -99.4,116.35 77.29,72.14 51.77,9.18 160,46.86z"/>
   <path class="fil5" d="M3775.55 2785.95l-1.77 -49.6c58.92,-28.54 62.06,-19.31 119.55,-10.65l-44.66 -57.04c-68.85,-33.27 -25.59,-61 -108.03,-42.37 -8.36,49.4 7.02,125.85 34.91,159.66z"/>
   <path class="fil7" d="M4364.19 4943.67l35.76 -34.46c-82.69,-105.61 -132.29,-59.18 -240.55,-84.3 -97.19,-22.57 -73.14,-137.49 -151.84,-183 149.64,371.4 216.7,115.14 370.34,266.47l-13.71 35.29z"/>
   <path class="fil9" d="M2028.47 2608.52c29.18,44.33 75.01,68.11 124.55,43.83 29.93,-142.89 -124.15,-157.86 -232.19,-158.87 94,72.75 220.94,-8.58 206.8,146.62 -68.75,-0.49 -34.36,-6.76 -99.16,-31.58z"/>
   <path class="fil10" d="M3213.6 3672.14c-25.72,-96.25 -28.39,-166.47 -127.28,-206.83 24.51,67.37 59.04,180.92 127.28,206.83z"/>
   <path class="fil3" d="M4405.14 7374.95l77.65 9.82c33.36,-35.54 29.4,-24.34 35.78,-66.56 -32.1,-38.12 -44.29,-38.37 -94.22,-30.81l-19.21 87.55z"/>
   <path class="fil7" d="M4531.11 4470.95c22.56,109.69 10.06,64.65 5.53,160.33 59.52,-19.45 112.45,-162.34 119.68,-225.89 -44.01,43.16 -40.36,82.81 -70.44,136.4 -36.94,-34.53 -9.9,-33.34 -54.77,-70.84z"/>
   <path class="fil9" d="M5911.41 8092.82c40.55,-8.59 7.83,13.78 42.55,-20.61l41.15 -73.4c-45.4,11.51 -72.94,43.23 -83.7,94.01z"/>
   <path class="fil10" d="M4236.59 7958.18c46.2,-13.33 51.13,-17.01 50.62,-65.48 -45.32,12.2 -48.31,14.48 -50.62,65.48z"/>
   <path class="fil9" d="M5942.24 8152.39c31.83,39.52 56.46,29.39 78.13,-10.38 -47.24,-7.26 -42.16,-12.93 -78.13,10.38z"/>
   <path class="fil6" d="M1159.37 1596.05c12.63,12.61 41.22,-16.76 15.05,-6.99 -0.31,0.12 -32.73,-10.7 -15.05,6.99z"/>
   <path class="fil8" d="M7754.82 6470.94c0,30.28 16.07,1.94 8.03,0 -0.15,-0.03 -8.03,-33.61 -8.03,0z"/>
   <path class="fil7" d="M5786.62 110.12c1.24,1.26 3.75,-5.55 3.77,-3.78 0,0.73 1.6,-1.6 1.54,-1.55 -0.31,0.31 -22.83,-12.18 -5.31,5.33z"/>
  </g>
 </g>
</svg>
